<?xml version="1.0" standalone="no"?> <!DOCTYPE svg PUBLIC "-//W3C//DTD SVG 20010904//EN" "http://www.w3.org/TR/2001/REC-SVG-20010904/DTD/svg10.dtd"> <svg version="1.0" xmlns="http://www.w3.org/2000/svg" width="600.000000pt" height="123.000000pt" viewBox="0 0 600.000000 123.000000" preserveAspectRatio="xMidYMid meet"> <g transform="translate(0.000000,123.000000) scale(0.100000,-0.100000)" fill="#56A77F" stroke="none"> <path d="M85 616 l0 -515 108 -3 107 -3 0 191 0 191 60 46 c33 26 63 47 68 46 4 0 49 -55 100 -122 51 -67 130 -171 177 -232 l84 -110 128 -6 c70 -3 130 -5 132 -3 2 2 -86 114 -195 249 -110 136 -217 269 -239 297 l-40 50 223 219 222 219 -129 0 -129 0 -231 -237 -231 -238 0 238 0 237 -107 0 -108 0 0 -514z"/> <path d="M1960 613 l0 -518 107 2 108 2 -3 188 -3 188 66 49 c37 28 69 45 74 40 4 -5 37 -47 72 -94 35 -47 113 -148 172 -225 l109 -140 127 -6 c140 -7 139 -7 120 20 -17 23 -368 458 -423 525 l-41 49 224 218 224 219 -129 0 -129 1 -233 -238 -233 -238 3 238 3 237 -107 0 -108 0 0 -517z"/> <path d="M1413 899 c-216 -26 -334 -211 -303 -476 11 -94 23 -132 65 -199 125 -197 507 -185 615 19 30 57 31 57 -78 64 l-90 6 -17 -32 c-30 -58 -126 -79 -195 -43 -46 25 -81 88 -87 161 l-5 57 246 -4 c155 -3 251 -1 257 5 14 14 -7 172 -32 238 -58 155 -189 226 -376 204z m140 -147 c30 -18 62 -77 72 -134 l7 -38 -156 0 c-155 0 -156 0 -156 23 0 132 125 212 233 149z"/> <path d="M4287 896 c-65 -18 -96 -42 -132 -104 -40 -68 -45 -66 -45 23 l0 75 -97 0 -98 0 0 -394 0 -395 99 -3 c54 -2 101 -1 105 2 3 3 6 120 6 260 0 241 1 258 22 302 48 105 159 118 211 25 15 -28 18 -71 22 -310 l5 -279 100 0 100 0 1 231 c1 126 4 249 8 272 25 154 167 204 228 80 22 -44 23 -56 23 -313 0 -148 3 -268 8 -268 4 0 50 0 102 0 l95 0 0 268 c0 276 -8 359 -40 423 -45 88 -141 130 -249 109 -82 -15 -120 -44 -162 -122 -24 -47 -32 -47 -48 -2 -37 102 -147 152 -264 120z"/> <path d="M3223 882 c-162 -58 -243 -187 -243 -386 0 -283 189 -451 460 -409 212 33 329 174 330 399 0 194 -65 319 -200 382 -75 35 -266 43 -347 14z m248 -145 c107 -70 119 -387 18 -471 -96 -81 -238 -40 -277 80 -35 107 -21 285 28 354 44 62 165 81 231 37z"/> <path d="M5421 880 c-133 -49 -208 -147 -233 -304 -48 -313 160 -534 459 -488 208 33 312 154 321 376 9 218 -48 335 -198 405 -76 35 -265 41 -349 11z m250 -142 c98 -55 126 -322 47 -438 -55 -81 -155 -101 -236 -48 -96 64 -119 356 -34 451 53 61 151 76 223 35z"/> </g> </svg>