<?xml version="1.0" encoding="UTF-8" standalone="no"?><!DOCTYPE svg PUBLIC "-//W3C//DTD SVG 1.1//EN" "http://www.w3.org/Graphics/SVG/1.1/DTD/svg11.dtd"><svg width="100%" height="100%" viewBox="0 0 683 683" version="1.1" xmlns="http://www.w3.org/2000/svg" xmlns:xlink="http://www.w3.org/1999/xlink" xml:space="preserve" xmlns:serif="http://www.serif.com/" style="fill-rule:evenodd;clip-rule:evenodd;stroke-linejoin:round;stroke-miterlimit:2;"><path d="M317.987,83.111c2.464,-0.259 15.305,-0.389 28.534,-0.13c35.409,0.649 60.052,6.355 91.44,21.271c14.527,6.874 21.66,12.451 25.292,19.715c2.205,4.15 3.372,5.058 9.079,6.226c7.393,1.556 12.97,4.15 15.435,7.134c2.464,2.983 4.799,2.594 10.895,-1.686c8.301,-5.577 27.497,-14.916 40.208,-19.455c21.012,-7.393 35.279,-9.728 60.571,-9.728c41.894,-0.13 60.571,6.355 69.65,24.254c6.096,12.192 5.707,16.602 -5.318,57.977c-6.745,24.903 -11.154,38.911 -13.489,42.802c-9.987,16.213 -31.647,22.438 -48.249,13.878c-3.243,-1.686 -11.025,-5.837 -17.51,-9.209c-9.598,-4.929 -34.241,-14.267 -35.279,-13.23c-0.13,0.13 0.908,3.891 2.205,8.431c1.427,4.41 2.594,9.857 2.594,11.933c0,3.243 0.649,3.891 5.577,5.188c18.807,4.929 34.89,19.974 41.245,38.522c7.652,22.179 2.205,45.007 -14.916,61.868c-9.339,9.339 -19.455,14.656 -32.296,16.732l-8.949,1.556l-3.632,9.598c-10.765,29.442 -26.589,54.605 -48.379,77.043c-9.598,9.857 -12.451,11.284 -18.418,9.079c-2.983,-1.167 -6.096,-7.912 -5.058,-11.154c0.389,-1.556 5.966,-8.171 12.062,-14.656c37.743,-39.559 57.328,-95.201 52.14,-148.379c-2.335,-24.773 -1.556,-23.087 -10.895,-23.865c-9.857,-0.778 -21.012,-4.54 -29.831,-10.117c-3.761,-2.335 -20.882,-18.288 -38.132,-35.409l-31.518,-31.129l-4.799,4.15c-12.97,11.025 -28.924,22.957 -39.3,29.313c-24.514,15.305 -55.902,28.664 -81.712,35.02c-29.961,7.393 -32.166,7.523 -90.273,8.171l-54.734,0.649l-0.649,3.372c-0.519,1.946 -1.556,11.025 -2.335,20.104c-3.891,39.559 7.004,84.955 28.405,118.159c36.706,57.069 97.017,90.273 163.684,90.273c32.426,0 60.052,-6.615 89.365,-21.66c8.82,-4.54 16.732,-8.171 17.639,-8.171c0.908,0 3.113,1.167 5.058,2.724c4.28,3.372 4.669,10.246 0.778,14.138c-1.427,1.427 -10.376,6.355 -19.844,11.025l-17.25,8.56l8.042,8.431c22.309,23.087 32.555,48.509 33.852,83.528c0.649,17.899 0.519,18.937 -2.205,22.309l-2.724,3.632l-225.422,0l-2.724,-3.502c-2.724,-3.502 -2.853,-4.54 -2.205,-23.087c0.519,-15.824 1.297,-21.531 4.021,-30.61c6.485,-22.049 15.435,-37.614 30.091,-52.4l8.171,-8.431l-15.045,-7.134c-17.51,-8.301 -35.798,-20.234 -49.676,-32.296c-25.422,-22.179 -47.73,-54.864 -59.533,-87.16l-3.761,-10.246l-6.226,-0.908c-20.493,-2.983 -37.873,-15.045 -46.693,-32.426c-17.121,-33.852 1.427,-75.487 38.132,-85.214c4.799,-1.297 5.447,-1.946 5.447,-5.188c0,-2.075 1.167,-7.523 2.594,-11.933c1.297,-4.54 2.335,-8.301 2.205,-8.431c-1.038,-1.038 -25.681,8.301 -35.279,13.23c-6.355,3.372 -14.267,7.523 -17.51,9.209c-16.602,8.56 -38.262,2.335 -48.249,-13.878c-2.335,-3.891 -6.745,-17.899 -13.489,-42.802c-11.025,-41.375 -11.414,-45.785 -5.318,-57.977c9.079,-17.899 27.756,-24.384 69.65,-24.254c25.292,0 39.559,2.335 60.571,9.728c12.711,4.54 31.907,13.878 40.208,19.455c2.983,2.075 6.096,3.761 6.874,3.761c0.778,0 4.799,-2.853 8.82,-6.226c17.899,-15.175 25.292,-18.158 30.35,-12.062c2.724,3.502 3.113,9.079 0.778,12.062c-0.908,1.038 -6.355,5.447 -12.062,9.598c-21.271,15.824 -42.672,40.467 -56.031,65.11c-7.263,13.1 -15.175,33.204 -14.267,35.798c0.778,1.816 6.355,2.075 49.157,2.075c61.738,0 78.599,-2.075 113.23,-13.489c36.835,-12.322 66.148,-29.442 97.277,-57.199c7.263,-6.355 13.619,-11.025 15.175,-11.025c1.816,0 14.786,11.933 39.429,36.317c32.426,32.166 37.614,36.835 45.266,40.337c10.636,5.058 24.773,6.745 26.07,3.243c1.038,-2.853 -6.615,-22.438 -14.138,-36.057c-12.581,-23.217 -37.614,-53.048 -47.86,-57.458c-2.724,-1.038 -7.523,-1.946 -10.765,-1.946c-8.171,0 -10.636,-1.686 -12.451,-8.171c-0.778,-2.983 -2.464,-6.874 -3.761,-8.82c-2.724,-3.761 -25.033,-14.656 -40.726,-19.844c-42.413,-14.008 -93.386,-12.841 -134.761,3.113c-5.577,2.205 -11.543,3.891 -13.359,3.891c-8.82,0 -11.284,-12.451 -3.502,-17.639c8.431,-5.707 42.802,-15.045 65.24,-17.899Zm-61.998,505.319c-5.577,-1.556 -10.895,-2.853 -11.673,-2.853c-1.038,0 -1.556,2.724 -1.556,8.431l0,8.431l23.346,0l0,-11.025l-10.117,-2.983Zm47.212,-74.579c-5.577,-1.167 -11.154,-2.205 -12.451,-2.205c-3.243,0 -13.359,8.301 -22.828,18.547c-7.263,8.042 -19.974,29.442 -19.974,33.852c0,1.556 12.451,5.837 28.145,9.857c8.69,2.205 10.636,5.837 9.857,18.158l-0.778,10.376l112.322,0l-0.778,-10.376c-0.778,-12.322 1.167,-15.953 9.857,-18.158c14.527,-3.761 28.145,-8.301 28.145,-9.598c0,-0.778 -2.724,-6.874 -5.966,-13.489c-6.355,-12.711 -19.585,-28.534 -30.35,-35.927l-5.188,-3.632l-12.711,2.464c-17.38,3.372 -62.257,3.502 -77.302,0.13Zm136.706,80.156c0,-9.728 0.519,-9.598 -13.878,-5.447l-9.468,2.853l0,11.025l23.346,0l0,-8.431Zm123.866,-322.958c-2.853,-1.686 -7.134,-3.372 -9.598,-3.891c-3.761,-0.778 -4.28,-0.649 -3.632,1.167c0.519,1.167 1.556,8.69 2.335,16.732c1.556,15.175 0.908,35.538 -1.556,51.362c-0.778,5.188 -1.167,9.728 -0.778,9.987c0.259,0.389 3.761,-0.649 7.782,-2.075c9.468,-3.502 17.639,-11.025 22.309,-20.234c3.113,-6.355 3.761,-9.209 3.761,-17.38c0,-15.435 -7.134,-27.886 -20.623,-35.668Zm-446.175,-142.024c-14.267,-3.113 -42.672,-4.41 -55.513,-2.724c-16.732,2.335 -23.087,4.28 -27.497,8.431c-7.523,7.134 -7.393,9.598 3.243,49.287c5.188,19.326 10.506,36.706 11.803,38.522c2.724,4.021 9.857,7.652 14.527,7.652c1.816,0 11.673,-4.28 21.92,-9.468c18.807,-9.598 33.074,-14.916 49.676,-18.418c4.929,-1.038 9.209,-2.464 9.468,-3.113c1.038,-3.113 15.824,-25.292 21.66,-32.685c3.632,-4.41 7.263,-9.079 8.171,-10.376c1.556,-2.075 0.778,-2.853 -8.431,-8.171c-13.359,-7.912 -32.944,-15.435 -49.027,-18.937Zm502.596,-2.594c-10.376,-1.167 -27.756,-1.427 -37.614,-0.389c-20.493,2.075 -48.638,11.284 -66.537,21.92c-9.209,5.318 -9.987,6.096 -8.431,8.171c0.908,1.297 4.669,5.966 8.171,10.376c5.966,7.393 20.623,29.572 21.66,32.685c0.259,0.649 4.799,2.205 9.987,3.243c16.342,3.372 32.426,9.468 50.584,18.937c19.196,9.987 23.217,10.636 30.999,5.188c5.188,-3.761 6.745,-8.042 16.602,-45.136c9.598,-36.057 9.728,-39.429 3.243,-46.044c-4.28,-4.15 -13.359,-7.004 -28.664,-8.949Zm-488.199,142.024c0.908,-2.335 -1.038,-2.464 -7.393,-0.13c-5.707,1.946 -10.765,5.577 -16.342,11.414c-14.786,15.305 -13.23,42.413 3.113,56.68c5.318,4.799 19.326,11.414 20.752,9.987c0.389,-0.259 0,-4.799 -0.778,-9.987c-2.464,-15.824 -3.113,-36.187 -1.556,-51.362c0.778,-8.042 1.816,-15.564 2.205,-16.602Zm121.79,53.178c1.686,-1.816 4.669,-3.243 6.485,-3.243c1.816,0 4.799,1.427 6.485,3.243c2.983,2.853 3.243,4.15 3.243,14.267c0,10.117 -0.259,11.414 -3.243,14.267c-4.021,4.15 -8.949,4.15 -12.97,0c-2.983,-2.853 -3.243,-4.15 -3.243,-14.267c0,-10.117 0.259,-11.414 3.243,-14.267Zm162.128,0c1.686,-1.816 4.669,-3.243 6.485,-3.243c1.816,0 4.799,1.427 6.485,3.243c2.983,2.853 3.243,4.15 3.243,14.267c0,10.117 -0.259,11.414 -3.243,14.267c-4.021,4.15 -8.949,4.15 -12.97,0c-2.983,-2.853 -3.243,-4.15 -3.243,-14.267c0,-10.117 0.259,-11.414 3.243,-14.267Zm-102.983,15.694c3.761,-4.799 9.079,-4.54 15.824,0.778c4.54,3.632 6.355,4.28 12.581,4.28c6.226,0 8.042,-0.649 12.581,-4.28c6.745,-5.318 12.062,-5.577 15.824,-0.778c5.447,6.874 1.946,13.878 -10.506,20.623c-6.096,3.502 -8.042,3.891 -17.899,3.891c-12.322,0 -18.029,-2.205 -26.459,-10.117c-5.447,-5.188 -5.966,-9.339 -1.946,-14.397Z" style="stroke:#000;stroke-width:10px;"/></svg>