<?xml version="1.0" encoding="UTF-8" standalone="no"?><!DOCTYPE svg PUBLIC "-//W3C//DTD SVG 1.1//EN" "http://www.w3.org/Graphics/SVG/1.1/DTD/svg11.dtd"><svg width="100%" height="100%" viewBox="0 0 384 384" version="1.1" xmlns="http://www.w3.org/2000/svg" xmlns:xlink="http://www.w3.org/1999/xlink" xml:space="preserve" xmlns:serif="http://www.serif.com/" style="fill-rule:evenodd;clip-rule:evenodd;stroke-linejoin:round;stroke-miterlimit:2;"><g id="Fondo"><path d="M383.999,69.375l0,9c-0.253,0.443 -0.625,0.23 -0.893,1.563c-0.003,0.015 -9.683,36.198 -9.857,36.728c-4.271,13.012 -17.826,21.049 -32.983,12.468c-5.414,-3.065 -10.789,-7.005 -25.57,-11.289c-5.715,-1.656 0.311,3.426 0.129,10.783c-0.006,0.223 -0.061,2.46 0.688,2.703c4.683,1.519 14.2,2.395 23.279,15.94c10.765,16.059 5.042,44.135 -19.723,51.674c-5.648,1.719 -9.129,0.761 -9.785,2.384c-1.57,3.885 -8.168,29.11 -32.87,52.59c-3.887,3.694 -5.963,3.067 -9.564,0.692c-1.602,-4.1 -1.811,-5.602 3.09,-10.163c13.431,-12.497 32.95,-40.287 33.687,-77.564c0.234,-11.824 -1.688,-23.847 -2.649,-24.571c-1.022,-0.771 -12.866,0.355 -24.78,-8.954c-2.811,-2.196 -2.906,-2.271 -31.83,-31.227c-4.118,-4.122 -4.687,-5.224 -6.169,-4.155c-4.784,3.45 -3.924,4.504 -19.675,15.5c-2.224,1.553 -11.48,7.521 -20.062,11.587c-36.047,17.08 -60.633,16.942 -82.591,16.967c-6.749,-0.002 -13.498,-0.003 -20.248,-0.005c-12.048,0 -12.272,-0.153 -12.955,0.721c-0.414,0.53 -5.134,22.032 0.307,45.855c0.883,3.866 5.865,25.673 21.155,44.823c36.061,45.163 84.844,42.752 88.993,42.77c22.724,-0.358 35.948,-5.875 47.299,-10.965c10.338,-4.636 11.758,-9.343 17.941,-3.839c0.45,1.63 2.308,5.506 -3.182,8.66c-17.231,9.899 -19.414,8.332 -19.243,10.063c0.11,1.112 23.888,17.704 24.278,52.506c0.108,9.64 0.568,14.006 -4.028,15.226c-2.172,0.577 -127.487,0.202 -127.519,0.197c-6.218,-0.959 -4.8,-7.956 -4.899,-13.918c-0.063,-3.796 -0.427,-25.867 15.55,-44.837c7.609,-9.034 9.411,-8.413 8.642,-9.801c-0.096,-0.173 -13.34,-5.642 -19.437,-9.708c-6.625,-4.417 -38.37,-22.49 -53.275,-66.862c-1.146,-3.412 -2.173,-2.576 -4.411,-2.77c-3.094,-0.269 -8.245,-1.822 -10.33,-2.819c-23.653,-11.309 -24.771,-38.185 -13.785,-52.312c11.463,-14.741 22.402,-11.835 22.506,-14.899c0.196,-5.795 0.418,-5.769 2.403,-11.239c0.646,-1.779 -0.532,-1.556 -2.333,-1.035c-9.926,2.873 -15.454,5.307 -25.26,11.065c-15.662,9.197 -29.184,0.388 -33.295,-12.242c-0.163,-0.501 -9.85,-36.7 -9.856,-36.728c-0.269,-1.336 -0.641,-1.123 -0.892,-1.563l0,-9c0.304,-0.548 0.614,-0.377 0.875,-1.577c1.021,-4.701 6.347,-12.782 15.219,-15.03c46.413,-11.76 81.326,11.635 87.214,15.581c2.836,1.901 2.729,-0.447 11.551,-6.826c5.485,-3.966 8.174,-7.213 13.151,-2.821c4.552,9.444 -4.783,6.424 -24.021,28.022c-2.446,2.747 -16.301,18.301 -23.172,39.71c-1.735,5.405 1.629,4.338 7.309,4.338c10.002,0.003 20.004,0.007 30.006,0.01c23.208,-0.05 52.515,-0.785 90.54,-24.23c11.993,-7.394 23.895,-18.749 25.805,-20.571c5.77,-5.505 8.333,-1.313 15.965,6.326c30.675,30.705 30.537,30.89 33.673,32.984c4.868,3.25 10.149,5.345 17.013,5.46c0.341,0.006 3.133,0.052 2.242,-3.626c-2.455,-10.142 -16.015,-36.288 -33.523,-50.529c-6.88,-5.596 -13.302,2.49 -15.927,-7.983c-0.822,-3.281 -0.665,-5.87 -17.299,-12.728c-12.465,-5.14 -25.477,-7.127 -27.75,-7.474c-8.552,-1.173 -20.152,-2.617 -38.973,0.828c-21.209,3.882 -24.682,10.234 -30.013,6.622c-0.745,-0.505 -0.624,-0.598 -1.686,-2.177c-1.431,-5.676 0.12,-6.816 13.639,-11.413c32.139,-10.928 72.483,-7.788 103.366,10.133c6.101,3.54 8.435,10.25 9.337,10.64c2.94,1.273 5.075,-0.951 12.854,5.247c2.851,2.271 3.243,-1.553 19.393,-9.054c25.738,-11.953 50.162,-9.626 54.569,-9.206c15.401,1.468 26.946,3.613 31.565,17.077c0.12,0.349 0.183,0.636 0.195,0.692c0.265,1.202 0.577,1.03 0.882,1.574Z" style="fill-opacity:1;"/><path d="M115.873,142.029c21.958,-0.025 46.544,0.113 82.591,-16.967c8.582,-4.066 17.838,-10.035 20.062,-11.587c15.751,-10.996 14.891,-12.05 19.675,-15.5c1.482,-1.069 2.051,0.033 6.169,4.155c28.924,28.956 29.019,29.031 31.83,31.227c11.914,9.309 23.758,8.183 24.78,8.954c0.96,0.724 2.882,12.747 2.649,24.571c-0.737,37.277 -20.256,65.067 -33.687,77.564c-4.901,4.561 -4.693,6.062 -3.09,10.163c-0.967,2.653 -1.834,1.933 -3.882,3.871c-1.27,1.202 -1.64,0.898 -2.998,2.254c-0.64,0.639 -0.722,0.479 -1.604,0.654c-6.183,-5.504 -7.603,-0.797 -17.941,3.839c-11.351,5.09 -24.576,10.607 -47.299,10.965c-0.319,-0.215 -0.433,-0.66 -0.751,-0.876c-0.03,-0.02 -2.07,-0.716 -2.25,-0.777c-18.69,-6.371 -42.849,-22.984 -57.414,-45.643c-4.814,-7.489 -4.633,-7.859 -4.095,-8.376c0.188,-0.18 0.59,0.256 0.777,0.076c21.047,1.579 25.215,-12.918 24.903,-17.733c-0.413,-6.379 -5.169,-10.468 -5.185,-10.49c-0.204,-0.278 -0.229,-0.662 -0.433,-0.94c1.224,-1.414 1.238,-1.389 1.322,-1.527c0.491,-0.809 0.985,-1.621 0.724,-11.806c-0.097,-3.792 -3.333,-5.914 -6.391,-5.491c-6.018,0.832 -4.878,8.785 -4.78,13.758c-0.434,0.053 -0.743,0.526 -1.178,0.579c-2.019,0.245 -9.893,-3.213 -20.8,4.297c-0.139,-0.193 -1.041,-0.292 -1.394,-1.936c-4.89,-22.781 -1.214,-42.324 -0.566,-46.433l0.258,-0.846Z" style="fill:#fedcce;fill-opacity:1;"/><path d="M208.87,48.412c2.273,0.347 15.284,2.334 27.75,7.474c16.634,6.858 16.477,9.448 17.299,12.728c2.625,10.473 9.047,2.387 15.927,7.983c17.508,14.24 31.069,40.387 33.523,50.529c0.891,3.679 -1.901,3.632 -2.242,3.626c-6.864,-0.115 -12.144,-2.209 -17.013,-5.46c-3.136,-2.094 -2.999,-2.28 -33.673,-32.984c-7.632,-7.639 -10.194,-11.831 -15.965,-6.326c-1.91,1.822 -13.812,13.177 -25.805,20.571c-38.025,23.444 -67.332,24.179 -90.54,24.23c0.841,-1.396 0.772,-1.398 1.29,-2.973c8.38,-25.472 22.672,-41.542 32.66,-50.707c19.574,-17.962 42.146,-25.195 53.043,-27.007l0.75,-0.198l0.75,-0.232l0.75,-0.119l0.75,-0.056l0.745,-1.078Z" style="fill:#8187ca;"/><path d="M115.873,142.029l-0.258,0.846c-0.647,4.109 -4.324,23.652 0.566,46.433c0.353,1.644 1.255,1.743 1.394,1.936c-12.483,10.327 -6.421,26.762 11.818,29.354c-0.188,0.18 -0.59,-0.256 -0.777,-0.076c-0.538,0.517 -0.719,0.886 4.095,8.376c14.565,22.659 38.724,39.272 57.414,45.643c0.18,0.061 2.22,0.757 2.25,0.777c0.319,0.215 0.433,0.66 0.751,0.876c-4.149,-0.019 -52.932,2.393 -88.993,-42.77c-15.291,-19.15 -20.272,-40.958 -21.155,-44.823c-5.442,-23.823 -0.721,-45.325 -0.307,-45.855c0.683,-0.874 0.907,-0.721 12.955,-0.721c6.749,0.002 13.498,0.003 20.248,0.005Z" style="fill:#fecabd;"/><path d="M174.356,286.293c13.732,1.593 23.049,1.845 38.216,-0.499c7.533,-1.164 8.036,-2.976 12.193,0.135c2.235,1.673 15.64,11.704 20.918,27.929c0.533,1.638 -0.205,1.822 -6.77,3.887c-9.959,3.131 -15.675,2.541 -15.079,9.634c0.483,5.756 0.646,8.946 -0.559,9.344c-0.496,0.164 -0.506,0.146 -59.401,0.146c-2.649,-0 -3.997,0.423 -4.019,-1.988c-0.088,-9.437 2.017,-11.835 -4.222,-14.28c0.513,-3.031 3.214,-18.995 18.416,-33.726l0.306,-0.582Z" style="fill:#feb4bf;"/><path d="M43.125,60.802c4.33,0.099 26.879,-0.147 50.84,14.823c2.282,1.425 3.146,1.951 1.353,3.981c-15.83,17.923 -14.72,24.379 -19.158,25.192c-36.447,6.675 -39.142,22.364 -50.76,14.467c-3.468,-2.358 -3.239,-3.503 -11.473,-34.154c-1.7,-6.327 -5.884,-15.895 3.1,-20.698c1.471,-0.786 3.932,-1.346 11.824,-2.688c4.826,-0.82 13.13,-0.91 14.275,-0.922Z" style="fill:#666eb1;"/><path d="M341.625,60.802c10.831,0.124 23.774,1.733 27.522,5.082c5.909,5.281 2.944,11.727 0.12,22.211c-7.218,26.8 -6.999,29.824 -12.632,32.301c-9.493,4.174 -10.911,-4.936 -36.766,-12.751c-11.115,-3.36 -13.283,-2.142 -14.758,-4.654c-3.327,-5.667 -3.558,-7.243 -13.299,-19.858c-3.427,-4.438 -5.793,-4.943 -3.186,-6.633c25.509,-16.533 50.677,-15.675 52.999,-15.698Z" style="fill:#666eb1;"/><path d="M208.87,48.412l-0.745,1.078l-0.75,0.056l-0.75,0.119l-0.75,0.232l-0.75,0.198c-10.897,1.812 -33.469,9.045 -53.043,27.007c-9.989,9.166 -24.28,25.235 -32.66,50.707c-0.518,1.575 -0.449,1.577 -1.29,2.973c-10.002,-0.003 -20.004,-0.007 -30.006,-0.01c-5.68,0 -9.043,1.066 -7.309,-4.338c6.871,-21.409 20.726,-36.964 23.172,-39.71c19.238,-21.599 28.573,-18.578 24.021,-28.022c0.174,-0.051 0.366,0.113 0.539,0.062c0.258,-0.076 0.202,-0.186 2.941,-1.637c0.124,-0.066 1.577,-1.027 1.713,-1.117c0.794,-0.525 0.772,-0.545 0.848,-0.574c0.118,-0.046 0.255,0.121 0.374,0.074c0.201,-0.079 0.099,-0.19 2.379,-1.287c0.109,-0.052 0.15,-0.194 0.248,-0.264c0.701,-0.496 1.002,-0.239 1.147,-0.274c1.062,1.579 0.941,1.672 1.686,2.177c5.33,3.612 8.804,-2.739 30.013,-6.622c18.821,-3.445 30.421,-2.001 38.973,-0.828Z" style="fill:#666eb1;fill-opacity:1;"/><path d="M244.447,186.368c0.027,0.006 0.756,0.629 1.902,0.458c18.052,-2.688 28.174,9.394 26.442,19.079c-3.224,18.028 -33.977,19.596 -41.493,4.511c-4.585,-9.203 0.514,-14.587 4.022,-18.978c0.372,0.192 2.895,2.521 6.618,0.283c2.254,-1.355 2.478,-4.88 2.509,-5.352Z" style="fill:#ff8e9e;"/><path d="M139.553,186.368c0.029,0.472 0.241,3.996 2.507,5.355c3.73,2.237 6.26,-0.103 6.619,-0.288c0.204,0.278 0.229,0.662 0.433,0.94c0.016,0.021 4.771,4.11 5.185,10.49c0.312,4.814 -3.856,19.311 -24.903,17.733c-18.239,-2.592 -24.301,-19.026 -11.818,-29.354c10.907,-7.509 18.781,-4.051 20.8,-4.297c0.434,-0.053 0.743,-0.526 1.178,-0.579Z" style="fill:#fe8e9e;"/><path d="M314.301,176.595c0.415,-6.192 0.483,-6.176 0.504,-6.714c0.648,-16.679 -2.126,-26.127 -1.558,-26.918c0.915,-1.274 13.044,2.365 17.686,13.494c7.199,17.257 -7.49,31.163 -17.057,32.205c-2.052,0.223 -0.728,-1.292 0.424,-12.067Z" style="fill:#fecabd;"/><path d="M69.734,177.34c0.049,0.36 0.614,4.503 0.614,4.503c0.718,5.591 1.511,7 -0.224,6.824c-7.244,-0.735 -20.149,-10.362 -18.879,-24.803c1.506,-17.124 18.444,-22.389 19.51,-20.903c0.328,0.457 -1.401,9.902 -1.598,17.157c-0.245,8.997 0.254,12.079 0.577,17.222Z" style="fill:#fecabd;"/><path d="M174.356,286.293l-0.306,0.582c-15.202,14.731 -17.904,30.695 -18.416,33.726c-5.69,-1.362 -16.614,-4.503 -17.209,-5.268c-0.935,-1.203 3.476,-11.84 10.62,-20.064c3.254,-3.746 11.072,-11.287 14.053,-11.141c0.916,0.045 0.877,0.244 11.258,2.167Z" style="fill:#fe8d9d;"/><path d="M190.891,198.041c-0.673,-0.065 -5.07,-0.49 -8.205,-2.045c-15.088,-7.485 -6.996,-16.789 -0.765,-14.223c1.459,0.601 9.016,10.026 17.962,1.61c6.667,-6.272 16.285,3.306 4.325,10.991c-6.523,4.192 -12.053,3.654 -13.317,3.666Z"/><path d="M244.447,186.368c-0.03,0.472 -0.255,3.998 -2.509,5.352c-3.723,2.238 -6.245,-0.091 -6.618,-0.283c-0.125,-0.144 -1.849,-1.281 -2.098,-4.331c-0.206,-2.519 -0.037,-7.569 -0.015,-8.226c0.024,-0.72 0.238,-7.136 6.459,-6.269c6.016,0.839 4.877,8.811 4.78,13.757Z"/><path d="M139.553,186.368c-0.097,-4.972 -1.237,-12.926 4.78,-13.758c3.058,-0.423 6.294,1.7 6.391,5.491c0.261,10.186 -0.232,10.997 -0.724,11.806c-0.084,0.138 -0.098,0.113 -1.322,1.527c-0.359,0.185 -2.889,2.525 -6.619,0.288c-2.265,-1.359 -2.478,-4.883 -2.507,-5.355Z"/><path d="M134.972,334.126c0.103,-2.654 0.011,-2.634 0.162,-5.274c0.177,-3.107 2.224,-1.808 3.244,-1.483c8.338,2.655 8.374,2.527 9.092,2.778c0.42,0.147 1.719,0.601 1.124,5.448c-0.017,0.141 -0.132,1.073 -1.249,1.261c-0.461,0.077 -9.629,0.019 -10.466,0.014c-2.547,-0.016 -1.843,-2.297 -1.907,-2.744Z" style="fill:#ffcbbe;"/><path d="M249.029,334.126c-0.065,0.446 0.64,2.726 -1.907,2.743c-0.837,0.005 -10.006,0.064 -10.466,-0.014c-1.117,-0.187 -1.231,-1.119 -1.249,-1.26c-0.596,-4.847 0.703,-5.301 1.123,-5.448c0.16,-0.056 6.667,-1.907 9.109,-2.73c0.913,-0.308 3.041,-1.745 3.225,1.435c0.152,2.642 0.06,2.622 0.165,5.274Z" style="fill:#ffddcf;"/></g></svg>