<?xml version="1.0" encoding="UTF-8" standalone="no"?><!DOCTYPE svg PUBLIC "-//W3C//DTD SVG 1.1//EN" "http://www.w3.org/Graphics/SVG/1.1/DTD/svg11.dtd"><svg width="100%" height="100%" viewBox="0 0 683 683" version="1.1" xmlns="http://www.w3.org/2000/svg" xmlns:xlink="http://www.w3.org/1999/xlink" xml:space="preserve" xmlns:serif="http://www.serif.com/" style="fill-rule:evenodd;clip-rule:evenodd;stroke-linejoin:round;stroke-miterlimit:2;"><path d="M295.68,52.915c10.502,-0.903 32.636,-0.678 44.154,0.452c67.869,6.663 124.219,40.315 155.274,92.6l4.63,7.792l46.639,0c26.764,0 49.123,0.452 52.624,1.129c27.667,5.308 39.186,33.426 25.296,61.658c-9.712,19.762 -28.796,30.942 -52.85,30.942l-10.05,0l4.178,4.743c6.324,7.453 11.744,19.649 13.212,30.039c4.065,27.441 -13.89,56.35 -39.75,64.142l-6.437,1.92l-1.92,9.147c-5.872,27.78 -20.101,57.593 -38.282,80.291c-8.131,10.163 -12.309,11.744 -17.165,6.776c-4.178,-4.065 -3.614,-8.131 1.92,-14.68c11.18,-13.551 23.376,-34.443 29.474,-50.817c14.455,-38.508 15.471,-79.275 2.823,-120.041l-3.501,-11.519l-380.112,0l-3.388,10.615c-7.114,22.134 -8.47,31.732 -8.582,57.706c0,20.779 0.339,25.183 2.597,35.459c17.842,79.5 86.276,138.335 173.004,148.612c51.156,6.098 106.716,-7.001 148.273,-34.894c6.663,-4.404 12.309,-7.453 14.116,-7.453c5.985,0 9.938,7.001 7.001,12.309c-1.355,2.597 -20.44,15.358 -31.394,21.004l-8.244,4.291l7.905,7.227c27.441,25.07 46.187,62.223 50.93,100.844c1.92,15.923 1.581,21.117 -1.694,24.279l-2.71,2.823l-222.692,0l-2.71,-2.823c-3.614,-3.501 -3.614,-7.792 0,-11.293l2.71,-2.823l211.399,0l-0.79,-5.872c-4.291,-35.572 -18.859,-65.949 -43.251,-90.003c-7.34,-7.227 -8.582,-8.131 -9.26,-6.211c-0.452,1.129 -2.146,6.889 -3.727,12.761c-5.195,18.068 -16.6,38.169 -26.764,46.865c-11.18,9.486 -27.893,10.05 -40.654,1.242c-5.195,-3.727 -14.229,-15.471 -18.633,-24.505l-3.049,-6.324l-4.856,8.47c-11.857,20.666 -22.134,28.57 -37.153,28.57c-7.114,0 -16.6,-3.275 -21.23,-7.34c-10.276,-9.147 -22.698,-31.62 -27.554,-50.027l-2.936,-11.406l-3.162,2.259c-4.291,3.049 -16.149,16.036 -21.908,24.166c-14.568,20.214 -24.618,46.3 -27.102,70.24l-0.79,7.114l23.715,0c21.456,0 23.94,0.226 26.312,2.146c1.92,1.468 2.597,3.275 2.597,6.324c0,3.049 -0.678,4.856 -2.597,6.324c-2.371,1.92 -4.969,2.146 -31.732,2.146c-28.119,0 -29.135,-0.113 -32.184,-2.484l-3.162,-2.484l0.678,-13.551c2.033,-39.299 18.52,-75.887 47.203,-104.796l11.97,-12.083l-11.519,-6.324c-15.358,-8.357 -33.765,-22.36 -46.865,-35.572c-26.651,-26.764 -45.284,-59.625 -53.076,-93.729l-2.484,-10.841l-5.759,-2.033c-28.796,-10.05 -45.509,-40.202 -38.621,-69.45c5.533,-23.489 25.409,-41.896 49.236,-45.509l8.695,-1.242l0.678,-8.582c2.597,-28.345 12.648,-58.496 26.651,-80.291c6.663,-10.276 8.808,-12.422 12.874,-12.422c4.178,0 8.582,3.952 8.582,7.679c0,1.581 -2.484,6.663 -5.533,11.406c-14.568,22.698 -23.037,47.429 -25.634,74.306l-0.79,8.244l77.129,0l0,-7.792c0,-10.502 1.807,-28.345 4.517,-44.154c6.776,-39.637 21.343,-73.289 41.105,-94.633c3.614,-3.84 6.098,-7.001 5.533,-7.001c-1.92,0 -20.101,6.437 -28.57,10.163c-11.631,5.082 -27.102,14.229 -37.718,22.472c-5.195,4.065 -10.05,6.889 -11.631,6.889c-3.84,0 -8.244,-4.743 -8.244,-8.921c0,-4.065 5.759,-9.486 20.891,-19.536c28.796,-19.31 65.836,-31.845 103.893,-35.12Zm-190.056,202.704c1.242,-3.952 2.033,-7.34 1.92,-7.453c-1.016,-0.903 -13.212,3.049 -17.391,5.533c-6.437,3.727 -13.777,11.97 -17.052,19.198c-9.147,19.762 -0.452,44.945 18.746,54.769l4.517,2.259l0,-14.793c0,-20.779 3.049,-40.767 9.26,-59.512Zm285.931,254.65c0.903,-4.743 1.242,-4.63 -7.792,-1.807c-9.825,3.162 -32.184,7.566 -45.058,8.808c-6.098,0.565 -11.406,1.355 -11.744,1.807c-1.016,1.016 2.936,12.422 7.001,20.214c4.291,8.244 10.276,16.374 14.116,19.31c3.84,2.936 12.422,3.501 16.826,1.242c9.147,-4.743 23.489,-31.394 26.651,-49.575Zm-122.413,3.727c-5.872,-1.242 -14.906,-3.388 -19.988,-4.969c-6.889,-1.92 -9.373,-2.259 -9.373,-1.242c0,4.065 6.324,22.472 10.389,30.377c8.695,16.6 15.584,23.263 24.053,23.263c8.357,0 15.358,-6.55 22.924,-21.343c4.404,-8.357 8.808,-20.214 7.905,-21.004c-0.226,-0.226 -5.985,-1.016 -12.761,-1.694c-6.889,-0.678 -17.278,-2.259 -23.15,-3.388Zm114.169,-434.655c-3.952,-1.355 -7.792,-2.371 -8.357,-2.371c-0.565,0 1.694,2.936 4.969,6.55c15.358,16.487 28.57,42.573 35.911,70.466c5.759,21.682 10.276,52.624 10.276,70.579l0,5.985l77.016,0l-0.79,-7.679c-3.952,-39.863 -21.117,-75.548 -49.349,-102.538c-19.536,-18.633 -42.46,-32.071 -69.676,-40.992Zm-47.655,-6.776c-9.599,-3.275 -25.296,-4.178 -33.652,-1.807c-44.38,12.535 -74.983,68.998 -78.823,145.337l-0.678,14.455l186.668,0l0,-6.55c0,-9.825 -3.049,-35.798 -5.646,-48.897c-10.502,-52.737 -36.362,-91.697 -67.869,-102.538Zm202.929,179.554c-2.597,-1.242 -6.889,-2.71 -9.486,-3.388c-4.743,-1.016 -4.969,-0.903 -4.291,1.355c7.453,25.521 10.05,42.348 10.163,64.255c0.113,8.582 0.226,15.584 0.452,15.584c0.113,0 2.371,-1.016 4.856,-2.371c11.18,-5.646 20.553,-19.762 21.908,-33.088c1.92,-17.165 -8.018,-34.894 -23.602,-42.348Zm59.512,-80.178c-2.71,-0.79 -20.891,-1.242 -47.655,-1.242c-40.767,0 -43.251,0.113 -42.46,1.92c4.517,10.728 9.825,34.104 11.293,49.801l0.79,8.244l32.41,-0.339c30.377,-0.339 32.636,-0.452 37.605,-2.823c16.713,-7.679 27.328,-28.345 21.908,-42.573c-2.371,-6.098 -8.018,-11.406 -13.89,-12.987Zm-372.997,117.331c3.388,-3.388 9.373,-3.049 12.309,0.678c1.92,2.484 2.371,4.63 2.371,11.857c0,7.566 -0.339,9.147 -2.484,11.631c-3.727,4.065 -8.47,4.404 -12.196,0.678c-1.92,-1.92 -2.259,-3.727 -2.259,-12.422c0,-8.695 0.339,-10.502 2.259,-12.422Zm169.39,0c3.388,-3.388 9.373,-3.049 12.309,0.678c1.92,2.484 2.371,4.63 2.371,11.293c0,9.712 -1.468,13.438 -5.646,14.906c-3.614,1.242 -9.486,-0.79 -10.615,-3.727c-0.339,-1.016 -0.678,-6.211 -0.678,-11.406c0,-8.018 0.339,-9.825 2.259,-11.744Zm-88.873,4.517c10.05,-1.129 10.615,-1.129 19.875,0c4.63,0.678 10.615,2.146 13.325,3.501c15.697,7.566 16.6,33.313 1.807,49.688c-8.695,9.599 -23.263,13.551 -35.233,9.486c-12.535,-4.178 -23.037,-18.181 -24.505,-32.862c-1.807,-16.939 7.34,-27.893 24.731,-29.813Zm25.296,18.746c-4.404,-2.71 -24.392,-2.823 -30.49,-0.226c-4.178,1.92 -3.84,13.438 0.678,20.101c9.825,14.455 28.006,10.389 32.41,-7.227c1.694,-6.437 0.79,-10.502 -2.597,-12.648Z" style="stroke:#000;stroke-width:10px;"/></svg>