<?xml version="1.0" encoding="UTF-8" standalone="no"?><!DOCTYPE svg PUBLIC "-//W3C//DTD SVG 1.1//EN" "http://www.w3.org/Graphics/SVG/1.1/DTD/svg11.dtd"><svg width="100%" height="100%" viewBox="0 0 384 384" version="1.1" xmlns="http://www.w3.org/2000/svg" xmlns:xlink="http://www.w3.org/1999/xlink" xml:space="preserve" xmlns:serif="http://www.serif.com/" style="fill-rule:evenodd;clip-rule:evenodd;stroke-linejoin:round;stroke-miterlimit:2;"><g id="Fondo"><path d="M166.125,0l18,0c16.118,2.071 36.575,3.6 61.571,16.742c41.48,21.809 47.883,50.949 53.929,50.972c66.581,0.248 73.36,-4.198 84.374,20.411l0,10.5c-2.095,5.244 -5.166,22.556 -25.806,29.461c-10.569,3.536 -22.273,-0.766 -17.513,4.455c7.11,7.799 25.098,47.634 -20.935,64.072c-1.8,0.643 -3.233,21.641 -17.398,45.098c-14.938,24.737 -19.367,20.531 -22.11,18.887c-4.603,-10.963 8.871,-9.496 22.134,-45.062c13.759,-36.897 3.957,-73.098 -0.811,-84.522c-0.499,-1.196 -1.009,-1.213 -177.444,-1.177c-74.436,-0.019 -74.835,-0.113 -75.315,0.82c-16.753,32.566 -13.762,113.388 57.439,150.746c46.095,24.185 83.826,16.291 96.597,14.276c8.387,-1.829 8.342,-1.783 9.058,-1.976c46.901,-12.622 45.022,-28.304 57.785,-22.932c1.513,5.688 2.526,8.923 -24.818,22.838c-2.369,1.206 0.047,1.621 4.279,5.508c30.067,27.622 39.247,73.037 31.734,84.882l-150,-0c-1.901,-2.866 -1.463,-2.998 -3.73,-5.4c2.48,-2.344 2.027,-5.75 6.744,-5.86c13.773,-0.321 125.557,0.005 136.474,0.037c7.455,0.022 -8.601,-51.901 -32.323,-68.509c-2.556,-1.79 -9.665,53.936 -42.672,44.125c-2.191,-0.651 -10.577,-3.144 -19.138,-21.211c-3.323,-7.012 -6.705,23.496 -30.334,22.39c-24.661,-1.154 -31.938,-46.651 -33.728,-45.363c-25.359,18.253 -38.71,68.345 -33.001,68.56c27.601,1.039 30.577,-2.811 34.012,5.465c-0.14,0.513 -0.772,2.824 -3.304,5.765l-40.5,-0c-7.239,-10.507 0.389,-50.303 24.276,-77.378c11.07,-12.548 13.325,-11.947 12.168,-12.754c-2.54,-1.772 -59.195,-26.019 -74.046,-91.718c-2.209,-9.774 -6.479,-5.886 -14.721,-11.532c-12.862,-8.812 -14.714,-20.644 -17.053,-25.992l0,-12.75c1.262,-3.062 6.323,-29.515 35.619,-33.048c7.434,-0.897 2.413,-5.156 7.8,-26.13c0.314,-1.222 4.435,-18.689 15.815,-35.834c4.81,-7.247 6.069,-6.646 10.891,-4.737c4.093,7.147 0.303,7.28 -5.009,16.64c-9.798,17.268 -11.861,31.718 -12.566,35.069c-0.659,4.872 -3.182,14.72 0.328,14.749c3.833,0.032 46.759,0.389 47.915,-0.057c1.155,-0.446 0.961,-0.838 1.758,-15.379c5.194,-52.52 18.539,-69.74 33.449,-85.602c3.572,-3.8 -25.051,5.993 -42.352,19.202c-6.185,4.722 -6.15,7.623 -13.213,4.477c-2.41,-4.058 -4.141,-6.965 13.107,-18.099c25.126,-16.22 46.903,-20.265 72.583,-23.126Z" style="fill-opacity:1;"/><path d="M124.117,129.837c176.435,-0.036 176.945,-0.019 177.444,1.177c4.768,11.424 14.571,47.625 0.811,84.522c-13.263,35.565 -26.738,34.099 -22.134,45.062c-0.568,1.026 -4.551,8.218 -10.557,10.173c-12.763,-5.372 -10.884,10.31 -57.785,22.932c-0.716,0.193 -0.671,0.146 -9.058,1.976c-5.638,-3.857 -62.655,-19.812 -82.267,-86.054c-0.037,-0.409 -0.075,-0.818 -0.112,-1.228c25.127,-8.825 20.578,-25.073 2.1,-34.079c2.772,-3.589 5.083,-18.893 -5.13,-18.442c1.183,-7.361 0.175,-7.554 6.041,-25.001l0.647,-1.038Z" style="fill:#feede5;fill-opacity:1;"/><path d="M124.117,129.837l-0.647,1.038c-5.865,17.447 -4.858,17.64 -6.041,25.001c-2.007,1.136 -6.634,3.215 -3.598,16.909c-1.655,0.661 -1.399,1.049 -3.253,1.299c-24.03,3.243 -25.304,37.91 9.882,34.314c0.037,0.409 0.075,0.818 0.112,1.228c19.613,66.242 76.629,82.197 82.267,86.054c-12.77,2.015 -50.501,9.909 -96.597,-14.276c-71.202,-37.358 -74.192,-118.18 -57.439,-150.746c0.48,-0.934 0.879,-0.839 75.315,-0.82Z" style="fill:#fedece;"/><path d="M236.218,102.364c-0.49,0.042 -0.603,0.948 -1.093,0.99c-9.326,0.794 -9.258,-0.601 -117,-0.067c-2.238,0.011 -2.12,-0.075 -4.289,-0.152c12.065,-121.373 102.651,-116.742 120.015,-18.802c1.588,8.958 1.424,8.89 2.367,18.031Z" style="fill:#fe8998;"/><path d="M113.179,378.234c-3.435,-8.277 -6.412,-4.427 -34.012,-5.465c-5.709,-0.215 7.643,-50.307 33.001,-68.56c1.789,-1.288 9.067,44.209 33.728,45.363c23.629,1.106 27.012,-29.402 30.334,-22.39c8.561,18.067 16.947,20.56 19.138,21.211c33.008,9.811 40.116,-45.914 42.672,-44.125c23.722,16.608 39.778,68.53 32.323,68.509c-10.918,-0.032 -122.702,-0.358 -136.474,-0.037c-4.717,0.11 -4.264,3.516 -6.744,5.86c-7.152,0.011 -7.177,1.84 -13.966,-0.365Z" style="fill:#4cdf9b;"/><path d="M80.436,41.225c7.063,3.146 7.028,0.245 13.213,-4.477c17.301,-13.209 45.924,-23.002 42.352,-19.202c-14.91,15.862 -28.255,33.082 -33.449,85.602l-0.926,0.205c-40.285,-0.138 -46.526,-0.331 -49.075,0.481c0.705,-3.35 2.767,-17.801 12.566,-35.069c5.311,-9.36 9.101,-9.493 5.009,-16.64c-0.105,-3.102 9.35,-10.181 10.311,-10.9Z" style="fill:#fed883;fill-opacity:1;"/><path d="M247.581,103.167c-0.475,-4.785 -3.527,-35.528 -14.271,-58.393c-11.427,-24.317 -26.082,-31.102 -15.371,-27.358c50.045,17.492 69.775,44.683 79.473,85.704c-20.379,0.348 -20.216,0.376 -49.83,0.048Z" style="fill:#fed883;"/><path d="M372.705,92.618c-1.752,31.052 -32.121,25.985 -54.33,25.964c-0.645,-0.001 -7.817,-0.007 -7.968,-1.255c-1.384,-11.468 -0.081,-14.681 -7.578,-36.757c-0.672,-1.978 1.193,-1.611 50.046,-1.606c13.689,0.001 17.627,1.893 19.83,13.654Z" style="fill:#fe5b6f;"/><path d="M236.218,102.364c0.182,3.208 2.368,16.191 -1.096,16.218c-9.729,0.076 -119.242,0.934 -121.613,-0.313c-0.912,-0.48 -0.455,-0.689 0.327,-15.135c2.169,0.077 2.051,0.163 4.289,0.152c107.742,-0.534 107.674,0.861 117,0.067c0.49,-0.042 0.603,-0.948 1.093,-0.99Z" style="fill:#fe5c70;"/><path d="M176.604,203.289c-30.533,-1.474 -37.522,-44.578 -0.729,-43.199c1.181,0.044 22.855,-1.709 22.645,18.037c-0.222,20.812 -19.298,24.638 -21.916,25.162Z"/><path d="M113.831,172.785c3.572,4.67 5.662,3.295 8.728,1.534c18.478,9.006 23.027,25.254 -2.1,34.079c-35.186,3.597 -33.912,-31.07 -9.882,-34.314c1.854,-0.25 1.599,-0.638 3.253,-1.299Z" style="fill:#fc9faa;"/><path d="M236.309,172.753c2.072,0.744 1.854,1.044 4.099,1.471c14.775,2.812 20.045,16.648 14.6,24.682c-17.989,26.539 -67.214,-5.925 -27.393,-24.521c4.552,2.469 5.242,2.176 8.694,-1.632Z" style="fill:#fc9faa;"/><path d="M190.157,308.951c17.519,-2.599 17.306,-2.809 34.463,-7.273c2.992,-0.779 -1.849,11.972 -2.222,12.955c-16.301,42.933 -33.995,17.493 -39.448,-0.858c-1.627,-5.476 1.588,-4.281 7.207,-4.824Z" style="fill:#e5edfe;"/><path d="M159.405,309.042c5.873,0.501 9.722,-1.599 7.957,4.006c-5.53,17.561 -20.493,42.558 -36.879,8.158c-3.494,-7.335 -7.475,-19.998 -4.859,-19.312c16.777,4.402 16.663,4.581 33.782,7.148Z" style="fill:#e5edfe;"/><path d="M320.28,163.156c-4.262,-31.569 -8.31,-33.339 -5.654,-32.995c26.026,3.375 34.637,40.965 7.444,53.808c-1.511,0.714 -1.152,-0.809 -1.79,-20.813Z" style="fill:#fedece;"/><path d="M11.29,158.63c0.119,-2.036 0.898,-15.297 11.052,-22.973c5.291,-4 15.097,-7.305 14.091,-4.02c-12.958,42.283 -4.783,45.095 -7.325,51.874c-0.087,0.231 -16.081,-2.475 -17.817,-24.881Z" style="fill:#fecdbe;"/><path d="M247.581,103.167c29.614,0.328 29.451,0.301 49.83,-0.048c1.644,13.749 2.991,14.739 0.663,15.444c-1.81,0.549 -43.423,0.063 -47.198,0.019c-3.14,-0.037 -2.675,-4.142 -3.294,-15.416Z" style="fill:#fec94a;"/><path d="M102.551,103.147c-0.797,14.541 -0.602,14.933 -1.758,15.379c-1.156,0.446 -44.082,0.089 -47.915,0.057c-3.51,-0.029 -0.988,-9.877 -0.328,-14.749c2.549,-0.812 8.789,-0.618 49.075,-0.481l0.926,-0.205Z" style="fill:#fec94b;"/><path d="M175.852,192.051c-15.767,-1.644 -16.868,-19.575 -6.697,-20.4c8.343,-0.677 22.61,-2.331 16.895,12.342c-2.531,6.498 -3.469,6.002 -10.198,8.058Z" style="fill:#41535f;"/><path d="M117.429,155.876c10.213,-0.451 7.901,14.853 5.13,18.442c-3.066,1.762 -5.156,3.136 -8.728,-1.534c-3.035,-13.693 1.592,-15.773 3.598,-16.909Z"/><path d="M236.309,172.753c-3.452,3.808 -4.142,4.101 -8.694,1.632c-0.707,-0.911 -3.715,-4.789 -1.726,-14.314c1.15,-5.507 15.041,-8.269 10.42,12.682Z"/></g></svg>