<?xml version="1.0" encoding="UTF-8" standalone="no"?><!DOCTYPE svg PUBLIC "-//W3C//DTD SVG 1.1//EN" "http://www.w3.org/Graphics/SVG/1.1/DTD/svg11.dtd"><svg width="100%" height="100%" viewBox="0 0 384 384" version="1.1" xmlns="http://www.w3.org/2000/svg" xmlns:xlink="http://www.w3.org/1999/xlink" xml:space="preserve" xmlns:serif="http://www.serif.com/" style="fill-rule:evenodd;clip-rule:evenodd;stroke-linejoin:round;stroke-miterlimit:2;"><g id="Fondo"><path d="M216.375,0l15.75,0c0.606,0.104 0.195,0.652 0.794,0.756c0.295,0.051 0.252,-0.056 3.747,0.027c6.052,0.144 24.172,4.299 35.312,10.649c51.32,29.255 47.777,74.924 48.007,92.443c0.049,3.771 4.312,5.56 6.647,14.999c2.367,9.568 -2.381,11.188 2.831,15.931c26.856,24.44 7.332,64.08 -20.793,70.494c-21.331,4.864 -31.076,-8.576 -34.286,-5.865c-7.807,6.592 -8.161,6.249 -12.798,9.061c-4.258,2.582 -2.314,3.695 -2.233,8.609c0.059,3.579 33.828,-0.828 46.329,2.818c33.652,9.815 28.394,47.62 28.394,48.205c-0,94.006 0.082,94.045 -0.582,96.779c-3.386,13.944 -14.105,16.756 -18.868,19.096l-27,-0c-1.873,-4.482 -3.257,-5.142 -3.729,-5.367c0.165,-0.148 0.729,0.056 1.209,-1.08c5.266,-12.459 26.796,3.253 35.951,-11.363c2.029,-3.24 1.767,-3.548 1.767,-79.315c-0,-27.978 2.831,-45.05 -14.918,-54.059c-3.381,-1.716 -8.705,-4.419 -47.3,-3.079c-1.925,0.067 -1.08,1.016 -2.003,6.933c-4.543,29.119 -46.474,40.838 -65.116,14.684c-7.525,-10.558 -6.769,-19.146 -7.246,-20.681c-0.56,-1.804 -16.918,-0.858 -17.045,-0.721c-1.497,1.615 35.951,59.629 40.088,73.524c3.436,11.544 2.61,17.301 2.97,18.746c0.334,1.34 0.997,1.111 37.122,1.111c13.725,0 27.329,-1.877 25.019,7.116c-1.683,6.552 -4.827,3.354 -70.789,4.137c-2.551,0.03 -1.721,5.297 -1.721,6.289c-0,30.934 -0.076,30.981 0.318,31.432c0.811,0.927 55.432,0.176 62.156,0.435c4.698,0.181 3.839,3.26 6.744,5.889c-0.471,0.228 -1.819,0.88 -3.728,5.368l-126,0c-0.37,-0.121 -0.45,-0.71 -0.82,-0.831c-1.275,-0.418 -5.004,-0.427 -14.168,-4.072c-9.21,-3.663 -21.097,-12.045 -28.888,-24.952c-2.289,-3.792 -1.925,-4.279 -3.318,-4.549c-1.128,-0.218 -11.155,3.23 -21.584,-5.247c-20.418,-16.596 -22.142,-20.699 -23.156,-23.112c-0.883,-2.101 -2.649,-6.304 -2.603,-28.362c0.027,-13.095 8.305,-11.802 6.647,-14.938c-3.267,-6.181 -8.481,-12.583 -11.362,-26.262c-1.712,-8.129 2.879,-6.65 4.373,-9.798c1.155,1.112 1.176,0.949 2.671,1.384c5.531,1.609 -0.322,6.319 17.574,35.096c0.625,1.005 3.783,2.131 6.289,6.326c1.953,3.27 2.404,-0.075 8.014,-5.625c2.036,-2.014 -16.287,-21.43 -17.298,-38.708c-2.514,-42.979 52.348,-59.221 74.335,-25.285c10.961,16.917 21.161,35.214 10.512,55.16c-10.38,19.442 -28.536,21.049 -29.581,21.387c-1.924,0.621 5.137,4.708 7.385,8.749c7.16,12.872 -0.063,19.062 -20.706,42.293c-4.33,4.873 23.658,30.415 23.888,23.745c0.946,-27.538 -6.439,-43.158 22.297,-43.066c4.686,0.015 8.098,1.512 6.107,-2.758c-2.89,-6.201 -0.791,-12.249 2.91,-15.681c10.874,-10.083 21.889,3.725 33.005,14.203c4.126,3.766 4.443,3.978 5.175,4.13c0.164,0.034 1.686,0.349 1.804,-1.054c0.971,-11.59 -2.188,-17.914 -28.377,-62.832c-30.828,-52.875 -32.854,-62.557 -58.789,-68.826c-2.857,-0.508 -21.086,-3.752 -35.906,5.175c-26.565,16.001 -18.012,33.241 -30.208,32.184c-11.848,-5.113 8.676,-29.557 12.387,-32.876c25.465,-22.772 71.562,-29.168 98.848,18.258c0.049,0.086 1.929,5.198 5.044,5.207c21.452,0.061 22.342,0.192 22.376,-1.352c0.011,-0.533 0.126,-5.843 -0.715,-6.629c-1.941,-1.813 -16.391,-6.586 -30.211,-26.902c-11.431,-16.805 -9.577,-26.425 -13.185,-27.269c-3.068,-0.718 -24.972,-5.844 -25.591,-29.935c-0.361,-14.068 9.181,-22.42 10.753,-23.796c5.387,-4.715 2.763,-5.943 3.15,-15.939c2.056,-53.12 49.78,-84.826 81.38,-85.867c1.247,-0.041 2.513,0.185 3.743,-0.024c0.36,-0.061 0.44,-0.689 0.801,-0.75Z" style="fill-opacity:1;"/><path d="M271.103,378.632c-2.906,-2.629 -2.047,-5.708 -6.744,-5.889c-6.724,-0.259 -61.345,0.492 -62.156,-0.435c-0.395,-0.451 -0.318,-0.499 -0.318,-31.432c0,-0.992 -0.83,-6.259 1.721,-6.289c65.962,-0.783 69.107,2.415 70.789,-4.137c2.309,-8.993 -11.295,-7.116 -25.019,-7.116c-36.125,-0 -36.788,0.229 -37.122,-1.111c-0.36,-1.445 0.466,-7.202 -2.97,-18.746c-4.136,-13.895 -41.584,-71.909 -40.088,-73.524c0.127,-0.137 16.485,-1.083 17.045,0.721c0.477,1.535 -0.279,10.123 7.246,20.681c18.641,26.154 60.572,14.435 65.116,-14.684c0.923,-5.918 0.078,-6.867 2.003,-6.933c38.595,-1.34 43.919,1.363 47.3,3.079c17.749,9.01 14.918,26.081 14.918,54.059c0,75.767 0.262,76.075 -1.767,79.315c-9.156,14.616 -30.685,-1.096 -35.951,11.363c-0.48,1.136 -1.043,0.932 -1.209,1.08c-2.007,0.004 -4.014,0.007 -6.021,0.011c-0.542,0 -0.502,-0.001 -6.772,-0.012Z" style="fill:#f48794;"/><path d="M171.235,66.234c4.25,5.572 6.918,26.072 36.89,38.194c0.405,0.164 0.29,0.242 0.75,0.401c1.9,0.657 1.699,-0.373 2.45,-0.537c20.014,10.668 22.101,9.541 67.293,9.548l-0.295,0.536c0.025,3.073 0.289,35.112 -1.014,38.404c-0.185,0.467 -1.071,0.364 -1.256,0.831c-1.799,-3.086 -1.984,-4.327 -16.176,-3.878c-9.178,0.29 -8.156,11.178 -0.003,11.234c10.22,0.071 11.993,0.511 14.855,-1.836c1.391,3.512 0.005,3.426 -1.389,6.98c-10.838,27.618 -33.13,37.61 -33.62,38.264c-0.204,0.273 0.182,0.749 -0.022,1.021c-48.695,11.081 -85.819,-22.891 -86.72,-67.023c-0.895,-43.818 2.995,-54.191 18.258,-72.14Z" style="fill:#fecdbe;"/><path d="M223.876,11.278c40.037,0.619 86.196,23.282 84.85,89.603c-0.042,2.053 -1.263,1.707 -38.351,1.707c-20.401,0 -55.202,4.993 -73.216,-29.606c-3.405,-6.539 -6.49,-9.089 -5.92,-53.855c0.088,-6.92 29.953,-7.773 32.637,-7.849Z" style="fill:#a7684f;"/><path d="M113.711,190.515l0.664,1.233l0.75,0.274l0.75,0.47l0.75,0.308l0.75,0.496l0.75,0.275c16.474,9.105 24.303,25.432 26.237,28.811c16.795,29.346 16.52,29.384 33.44,58.679c1.972,3.414 18.287,29.563 16.095,38.036c-11.116,-10.478 -22.131,-24.286 -33.005,-14.203c-3.701,3.432 -5.8,9.48 -2.91,15.681c1.99,4.271 -1.421,2.773 -6.107,2.758c-28.736,-0.092 -21.351,15.527 -22.297,43.066c-0.229,6.67 -28.218,-18.872 -23.888,-23.745c20.644,-23.231 27.867,-29.421 20.706,-42.293c-2.248,-4.041 -9.309,-8.128 -7.385,-8.749c1.045,-0.337 19.201,-1.945 29.581,-21.387c10.649,-19.946 0.449,-38.243 -10.512,-55.16c-21.987,-33.936 -76.849,-17.695 -74.335,25.285c1.011,17.279 19.334,36.694 17.298,38.708c-5.61,5.55 -6.061,8.895 -8.014,5.625c-2.506,-4.196 -5.663,-5.321 -6.289,-6.326c-17.896,-28.776 -12.042,-33.487 -17.574,-35.096c-1.496,-0.435 -1.517,-0.272 -2.671,-1.384c-0.003,-7.064 -0.185,-7.028 1.101,-14.004c12.196,1.057 3.643,-16.183 30.208,-32.184c14.82,-8.927 33.049,-5.683 35.906,-5.175Z" style="fill:#8694dd;fill-opacity:1;"/><path d="M138.91,238.96c-1.618,1.132 -15.567,7.288 -7.931,12.499c3.082,2.103 6.06,-1.28 10.693,-2.908c0.787,29.853 -26.802,37.809 -40.973,28.872c-0.39,-0.246 -1.07,-0.675 -5.33,-2.183c4.088,-2.645 13.453,-7.812 6.167,-12.189c-0.962,-0.578 -2.865,-1.721 -12.968,5.362c-6.381,-10.25 -22.993,-31.747 -6.402,-50.502c11.689,-13.214 35.833,-15.454 48.335,6.179c2.631,4.553 2.573,4.503 8.408,14.869Z" style="fill:#fedece;"/><path d="M169.621,318.499l1.004,-0.138c2.054,0.296 3.533,0.509 19.994,16.52c0.047,36.801 0.254,37.569 -1.179,37.819c-0.487,0.085 -37.778,-0.061 -42.812,0.073c-4.446,0.118 -5.763,-2.962 -5.79,-4.914c-0.412,-29.841 -0.322,-30.202 1.528,-31.972c4.604,-4.403 32.437,3.874 32.224,-7.017c-0.043,-2.196 -4.061,-8.745 -4.968,-10.372Z" style="fill:#fecdbe;"/><path d="M92.675,286.502l-0.05,1.35l0.75,0.634l0.864,0.639l0.845,0.75l0.856,0.75l0.435,0.391l0.75,0.689l0.75,0.68l0.75,0.66l0.759,0.579l0.893,0.75l0.869,0.75l0.48,0.429l0.75,0.666l0.75,0.701l0.75,0.655l0.75,0.658l0.864,0.639l0.845,0.75c10.547,7.371 1.137,18.577 0.119,19.789c-11.319,13.478 -12.077,12.829 -16.065,19.271c-0.918,0.088 -6.535,0.63 -11.031,-3.334c-11.984,-10.567 -16.769,-14.337 -17.885,-15.762c-4.718,-6.021 -3.487,-29.247 -2.363,-30.194c4.682,-3.945 6.241,10.168 8.16,12.355c8.265,9.419 15.815,-15.51 25.406,-15.249Z" style="fill:#fecdbe;"/><path d="M197.981,234.316c-0.76,-8.628 -0.549,-8.535 -0.473,-17.2c0.063,-7.083 8.895,9.244 48.941,-1.926c2.124,-0.593 1.755,4.734 1.635,13.937c-0.35,26.964 -39.304,39.564 -50.103,5.188Z" style="fill:#fda38c;"/><path d="M297.399,195.025c-4.562,-0.843 -4.634,-0.441 -8.874,-2.25c-3.673,-1.566 -5.268,-2.179 -2.81,-5.386c13.551,-17.684 12.707,-30.27 15.438,-30.929c14.449,-3.483 13.972,-5.632 20.259,-12.047c3.139,-3.203 17.518,19.775 3.582,36.606c-12.899,15.579 -22.989,13.873 -27.595,14.005Z" style="fill:#a1644c;"/><path d="M278.617,113.839c5.886,0.001 12.205,-0.953 12.215,2.033c0.068,21.115 5.937,71.811 -51.135,89.525c0.204,-0.273 -0.182,-0.749 0.022,-1.021c0.49,-0.654 22.782,-10.647 33.62,-38.264c1.395,-3.555 2.781,-3.468 1.389,-6.98c1.98,-2.425 1.334,-4.7 1.324,-5.521c0.185,-0.467 1.071,-0.364 1.256,-0.831c1.304,-3.292 1.039,-35.331 1.014,-38.404l0.295,-0.536Z" style="fill:#feb09e;"/><path d="M113.711,190.515c25.935,6.269 27.961,15.951 58.789,68.826c26.189,44.917 29.348,51.241 28.377,62.832c-0.118,1.403 -1.64,1.088 -1.804,1.054c-0.733,-0.152 -1.05,-0.363 -5.175,-4.13c2.191,-8.472 -14.124,-34.622 -16.095,-38.036c-16.92,-29.295 -16.645,-29.333 -33.44,-58.679c-1.934,-3.379 -9.763,-19.706 -26.237,-28.811l-0.75,-0.275l-0.75,-0.496l-0.75,-0.308l-0.75,-0.47l-0.75,-0.274l-0.664,-1.233Z" style="fill:#4f66cf;"/><path d="M180.041,34.875c-0,0.498 0.369,9.391 -0.714,10.158c-20.527,14.545 -28.159,25.071 -35.487,49.177c-0.437,1.437 -2.248,1.512 -2.245,-0.105c0.009,-6.15 0.064,-44.981 34.46,-68.716c3.612,-2.492 3.954,-1.964 3.972,-1.622c0.049,0.887 -0.086,0.874 0.014,11.108Z" style="fill:#a96950;"/><path d="M226.063,182.266c-1.196,0.073 -9.285,2.067 -17.657,-4.481c-11.513,-9.005 -8.753,-27.331 1.01,-21.119c3.273,2.082 1.84,15.768 13.695,14.591c3.947,-0.392 7.918,-3.305 8.833,-8.169c0.107,-0.57 -0.132,-6.137 4.719,-7.293c3.316,-0.79 6.548,1.892 6.724,5.078c0.88,15.954 -15.214,20.762 -17.324,21.392Z"/><path d="M171.235,66.234c0.654,-0.656 6.582,-6.602 8.504,-7.852c1.817,-1.182 1.101,8.181 8.289,21.411c8.832,16.255 23.032,24.309 23.298,24.499c-0.751,0.165 -0.549,1.194 -2.45,0.537c-0.46,-0.159 -0.345,-0.237 -0.75,-0.401c-29.973,-12.122 -32.64,-32.622 -36.89,-38.194Z" style="fill:#feaf9d;"/><path d="M141.724,115.875c0.111,27.097 1.159,28.812 -1.093,28.464c-11.219,-1.731 -21.459,-27.423 -0.67,-36.486c0.133,-0.058 1.469,-0.641 1.78,0.312c0.282,0.865 0.129,0.865 -0.017,7.71Z" style="fill:#feaf9d;"/><path d="M315.797,130.061c-0.435,1.451 -3.31,11.034 -12.428,14.288c-1.809,0.645 -1.315,-0.991 -1.287,-23.974c0.001,-0.515 0.007,-6.12 0.694,-6.403c0.462,-0.19 8.518,-0.463 9.57,0.435c4.559,3.894 3.571,14.377 3.451,15.653Z" style="fill:#f7947f;"/><path d="M252.714,137.624c0.094,-9.626 -0.881,-15.453 3.421,-17.225c7.68,-3.163 15.867,4.227 9.561,9.501c-3.589,3.002 -1.683,3.797 -1.737,8.48c-0.088,7.555 -10.669,10.358 -11.246,-0.756Z"/><path d="M191.288,137.624c-0.592,11.118 -11.162,8.312 -11.246,0.756c-0.052,-4.662 1.87,-5.462 -1.739,-8.481c-6.294,-5.266 1.867,-12.665 9.56,-9.5c4.306,1.772 3.331,7.57 3.425,17.224Z"/><path d="M190.55,155.609c-1.536,5.756 -3.547,5.655 -16.928,5.347c-7.01,-0.162 -9.951,-11.21 1.503,-11.228c9.129,-0.014 14.288,-1.55 15.425,5.881Z" style="fill:#fe8f83;"/><path d="M276.052,153.61c0.01,0.82 0.656,3.095 -1.324,5.521c-2.862,2.347 -4.635,1.907 -14.855,1.836c-8.153,-0.057 -9.175,-10.944 0.003,-11.234c14.192,-0.449 14.377,0.791 16.176,3.878Z" style="fill:#fe8f83;"/><path d="M92.675,286.502c2.242,0.428 3.251,0.62 22.325,17.762c5.359,4.816 3.114,7.394 -9.928,22.099c-8.275,9.331 -7.828,10.181 -14.684,12.321c3.988,-6.442 4.746,-5.793 16.065,-19.271c1.018,-1.212 10.428,-12.418 -0.119,-19.789l-0.845,-0.75l-0.864,-0.639l-0.75,-0.658l-0.75,-0.655l-0.75,-0.701l-0.75,-0.666l-0.48,-0.429l-0.869,-0.75l-0.893,-0.75l-0.759,-0.579l-0.75,-0.66l-0.75,-0.68l-0.75,-0.689l-0.435,-0.391l-0.856,-0.75l-0.845,-0.75l-0.864,-0.639l-0.75,-0.634l0.05,-1.35Z" style="fill:#ffb09e;"/><path d="M102.794,251.631c-0.848,6.882 -7.604,7.565 -10.841,2.197c-0.314,-0.521 -7.384,-9.102 -1.417,-13.202c3.654,-2.511 9.438,0.519 12.258,11.004Z"/><path d="M123.367,242.3c-8.18,-0.962 -14.041,-18.169 -3.028,-17.451c2.843,0.185 15.537,13.853 3.028,17.451Z"/><path d="M88.568,268.413c10.103,-7.083 12.006,-5.94 12.968,-5.362c7.286,4.376 -2.079,9.544 -6.167,12.189c-1.743,-1.414 -2.971,-1.542 -6.801,-6.827Z" style="fill:#fe8f83;"/><path d="M138.91,238.96c1.769,4.715 1.823,4.615 2.763,9.591c-4.633,1.629 -7.611,5.012 -10.693,2.908c-7.637,-5.212 6.313,-11.367 7.931,-12.499Z" style="fill:#fe8f83;"/><path d="M169.621,318.499c-3.383,-6.771 1.275,-5.443 1.598,-5.156c1.552,1.381 18.053,16.07 18.958,17.746c0.524,0.971 0.298,0.948 0.441,3.793c-16.46,-16.011 -17.94,-16.225 -19.994,-16.52l-1.004,0.138Z" style="fill:#ffb09e;"/></g></svg>