<?xml version="1.0" encoding="UTF-8" standalone="no"?>
<!DOCTYPE svg PUBLIC "-//W3C//DTD SVG 1.1//EN" "http://www.w3.org/Graphics/SVG/1.1/DTD/svg11.dtd">
<svg width="100%" height="100%" viewBox="0 0 683 683" version="1.1" xmlns="http://www.w3.org/2000/svg" xmlns:xlink="http://www.w3.org/1999/xlink" xml:space="preserve" xmlns:serif="http://www.serif.com/" style="fill-rule:evenodd;clip-rule:evenodd;stroke-linejoin:round;stroke-miterlimit:2;">
    <g transform="matrix(0.961658,0,0,0.961658,13.087382,12.786736)">
        <path d="M378.667,0.8C389.867,-0.533 424.934,1.333 437.6,4C490.667,15.2 533.734,49.467 554.934,97.467C564.4,118.933 569.334,145.6 569.334,175.6C569.334,186.933 569.6,188.4 573.334,194.133C579.334,203.733 581.867,212.533 581.734,224.667L581.6,235.333L588,242C601.867,256.533 608,271.2 608,290.533C608,311.6 601.334,326.8 584.667,343.334C567.334,360.667 550.8,367.467 529.334,366.4C517.067,365.734 505.467,362.267 497.067,356.667C494.4,354.8 491.467,353.334 490.667,353.334C489.867,353.334 486,356 482.134,359.2C478.134,362.4 471.867,366.8 468.134,368.8L461.334,372.667L461.334,388L493.734,388C511.467,388 530.134,388.667 535.067,389.334C560.267,393.067 583.2,412.667 590.667,437.067C593.2,445.334 593.334,449.6 593.334,546.8C593.334,646.934 593.334,648 590.534,655.6C587.067,664.667 578.267,674 568.667,678.667C562.534,681.6 560.134,682 537.734,682.4L513.467,682.934L510,679.467C505.734,675.2 505.734,670.134 510,666C513.2,662.8 513.734,662.667 534.4,662.667C554,662.667 556,662.4 561.467,659.6C565.067,657.6 568.534,654.534 570.267,651.2L573.334,646L572.934,544.667L572.667,443.334L568.134,434.934C560.667,421.2 548.534,412.267 533.467,409.334C529.467,408.667 511.734,408 494,408L461.734,408L460.134,417.6C455.467,445.734 433.734,467.6 405.6,472.267C373.067,477.734 339.067,454.134 333.2,422C332.4,417.6 331.467,412.667 331.2,410.934C330.667,408.134 330.133,408 315.2,408C303.2,408 299.867,408.4 300.4,409.734C300.667,410.667 315.467,436.534 333.2,467.2C350.934,498 366.934,526.4 368.667,530.534C372.934,540.934 375.734,552.134 376.8,564.267L377.734,574.667L429.334,574.667C479.6,574.667 481.067,574.8 484.534,577.467C488.934,580.934 489.2,587.2 485.067,591.6L482.267,594.667L358.667,594.667L358.667,662.667L473.467,662.667L476.667,666C478.534,667.734 480,670.8 480,672.667C480,674.534 478.534,677.6 476.667,679.334L473.467,682.667L255.067,682.667L241.867,679.334C212.133,671.734 186.4,652.8 172.267,627.734L168.667,621.467L161.333,622.267C152.8,623.067 140.533,620.134 134,615.6C124.533,609.067 94.8,582.267 91.6,577.467C85.6,568.534 84.133,560.134 83.867,534.667C83.467,508.8 84.133,506.134 92,499.467L96.267,496L90.267,485.6C80.133,467.867 74.667,452.8 74.667,442.134C74.667,429.467 91.333,428.4 94.133,440.934C98.133,460 114.133,491.2 123.867,499.6C126.8,502 129.6,505.334 130.133,506.934C130.933,509.6 131.6,509.2 138,502.267L145.067,494.667L140,486.934C137.333,482.8 131.067,472.134 126.267,463.467C115.6,444.267 112.667,433.2 113.733,416.8C116.533,374.134 156.8,342.667 198,351.067C212.267,354 226,360.934 235.067,370C242.133,376.934 254.8,396.4 264,414.534C284.667,455.467 263.067,504.667 218.933,516.8L210.667,519.067L218.533,527.334C224.133,533.067 226.933,537.2 228,541.467C229.867,548.267 229.067,558.134 226.133,563.6C225.067,565.734 215.733,577.334 205.333,589.2L186.4,611.067L188.4,615.2C194.667,628.4 210.4,644.267 224.4,651.467L230.667,654.667L230.667,625.734C230.667,592.8 231.6,589.2 240.533,581.734C247.333,576.134 253.467,574.667 269.2,574.667C276.533,574.667 282.667,574.4 282.667,574.134C282.667,573.867 281.733,571.334 280.533,568.534C277.733,561.734 278.667,552.134 282.8,546C288.667,537.334 301.333,533.734 311.067,537.867C313.467,538.8 323.733,547.6 334,557.2C344.267,566.8 353.734,574.667 355.2,574.667C357.467,574.667 357.6,573.867 356.8,565.6C355.734,555.467 353.467,546 350.134,538C348.934,535.067 327.333,496.934 302.267,453.334C258.133,376.667 256.267,373.734 246,363.334C209.067,326.133 151.6,327.467 116,366.267C108.8,374.267 97.333,393.6 97.333,397.867C97.333,398.8 95.867,400.934 94.133,402.534C89.733,406.667 83.2,406 79.467,400.934L76.667,397.2L79.733,388.267C84.8,373.734 92.667,361.734 105.867,348.667C118.4,336.267 127.467,330 141.067,324.533C156.533,318.267 164.933,316.8 183.333,316.933C198.133,316.933 202.4,317.467 212.4,320.533C218.933,322.4 227.333,325.6 231.067,327.467C250.4,337.2 268.267,354.667 280,375.067L287.333,388L330.667,388L330.667,374.8L322.4,369.867C291.333,351.334 268.533,322.533 258.533,289.2C255.467,278.8 254.4,277.333 249.867,277.333C248.267,277.333 242.8,275.2 237.733,272.667C203.867,255.733 196.933,212.133 223.733,185.333L231.6,177.467L232.4,157.067C232.8,145.867 234.133,132.8 235.333,128C252.667,56.667 305.2,10 378.667,0.8ZM319.867,60.267C320,49.867 319.6,41.333 319.067,41.333C316.533,41.333 299.6,55.467 290.8,64.667C267.2,89.467 254.133,120 252.4,154.267C251.733,167.333 251.867,169.333 253.6,169.333C254.933,169.333 256,167.6 256.667,164.4C258.4,155.2 266.8,136.4 274.533,124.4C283.867,110 297.867,95.067 310.533,86L319.867,79.333L319.867,60.267ZM194.8,370.667C185.467,368.934 180.933,369.067 172,371.467C144.267,378.934 127.467,408.134 135.333,435.467C138.267,445.6 155.867,476.267 163.067,483.6C166,486.8 170.667,490 173.2,490.8C175.867,491.734 179.6,493.467 181.6,494.934C186.8,498.534 198.267,500.134 208.133,498.534C238.4,493.6 258.4,462.934 250,434C246.933,423.2 230.267,394.267 222.4,385.867C215.067,378.134 205.2,372.667 194.8,370.667ZM158.8,430.134C161.467,426.667 166.4,425.6 171.2,427.467C174,428.534 182.667,444 182.667,448C182.667,452.534 177.6,457.334 173.067,457.334C168.267,457.334 164,453.2 159.467,444.267C155.333,436 155.2,434.667 158.8,430.134ZM205.333,402.667C209.067,398.934 216.133,399.2 219.6,402.934C223.2,406.934 229.333,418.667 229.333,421.734C229.333,425.467 223.333,430.667 218.933,430.667C214.667,430.667 211.333,427.6 206.133,418.534C202,411.2 201.733,406.267 205.333,402.667ZM558.8,209.6L555.6,202.667L537.467,202.667L537.067,230C536.667,260.667 536.134,259.333 546.267,253.067C560.4,244.533 566,224.933 558.8,209.6ZM364.667,386.267C359.6,385.2 354.134,383.734 352.8,383.2C350.4,382.267 350.267,382.934 350.934,400.267C351.6,415.867 352.134,419.334 355.067,425.734C368,454.134 403.2,461.867 425.734,441.334C430.667,436.934 434.134,432.134 436.667,426.4C440.134,418.8 440.534,416.267 441.067,400.267C441.467,388.667 441.2,382.667 440.267,382.667C439.467,382.667 433.6,384 427.067,385.6C412.267,389.334 379.6,389.734 364.667,386.267ZM420.667,21.467C396.267,18.533 368.8,20.667 349.867,26.933L340.667,30L340.667,65.333C340.667,102.133 341.2,106.533 346.934,121.333C356.667,146 376.134,165.333 401.6,175.6C417.467,182 426.4,182.667 490,182.4L548.667,182L548.4,164.4C548.134,144.667 545.734,130.133 539.867,114.133C521.467,63.467 476.134,28.267 420.667,21.467ZM186.933,525.734C162.4,504.534 163.067,504.534 148,521.6C133.867,537.6 131.2,540 127.467,540C121.733,540 117.867,535.334 115.467,525.734C112.933,515.6 111.467,513.334 107.867,513.334C103.733,513.334 103.067,517.334 103.867,539.334C104.667,557.6 105.067,561.467 107.467,565.067C110.933,570.534 143.333,598.534 148.933,600.8C161.333,606 167.6,602.267 189.867,576.534C199.867,565.067 208.4,554 208.933,552.267C210.267,546.934 207.333,543.334 186.933,525.734ZM331.867,136.667C329.067,130.8 325.333,120.667 323.6,114.133L320.4,102.133L309.733,112.8C292.667,129.6 280.933,150 275.067,172.933C273.067,180.667 272.667,188.267 272.667,224C272.667,263.6 272.8,266.667 275.733,277.333C286.533,317.467 316.667,349.6 355.334,362.534C400.134,377.334 447.6,366.534 480.534,333.867C496.134,318.533 507.2,299.067 512.934,277.467C516,266 516.4,261.333 516.934,233.733L517.6,202.933L467.867,202.4C421.467,201.867 417.2,201.6 407.467,198.8C373.334,189.2 346.4,167.2 331.867,136.667ZM452.134,216.8C454.534,213.733 455.867,213.333 462.4,213.333C468.134,213.333 470.534,214 472.934,216.267C477.067,220.133 476.934,225.867 472.667,230.133C469.734,232.933 469.334,234.667 469.334,242.133C469.334,249.6 468.8,251.2 466,254C464.267,255.867 461.2,257.333 459.334,257.333C457.467,257.333 454.4,255.867 452.667,254C449.467,250.933 449.334,250 449.334,235.6C449.334,222.267 449.734,220 452.134,216.8ZM362.4,277.867C368.934,274.667 375.2,278.667 376.534,286.933C378.267,298 384.667,304 394.667,304C404.667,304 411.067,298 412.8,286.933C413.2,283.867 414.667,280.533 416,279.333C419.6,276.133 426.267,276.4 429.734,279.867C436,286.133 430.8,305.6 420.4,314.8C402.267,330.667 373.867,326.4 362,306.133C354.934,294.133 355.2,281.467 362.4,277.867ZM316.267,216.4C318.667,213.867 320.533,213.333 326.8,213.333C333.467,213.333 334.8,213.733 337.2,216.8C339.6,220 340,222.267 340,235.6C340,250 339.867,250.933 336.667,254C334.933,255.867 331.867,257.333 330,257.333C328.133,257.333 325.067,255.867 323.333,254C320.533,251.2 320,249.6 320,242.133C320,234.667 319.6,232.933 316.667,230.133C312.533,226 312.4,220.533 316.267,216.4ZM582.8,268.4C580.4,263.867 577.067,259.067 575.6,257.733C572.667,255.2 572.667,255.2 566.8,261.6C560.8,268.133 544.934,277.333 539.467,277.333C534.8,277.333 533.6,278.933 529.867,290.667C525.6,304.4 520.534,314.933 511.867,327.6C508.267,332.933 505.334,337.6 505.334,338C505.334,338.4 508.667,340.4 512.934,342.267C535.2,352.534 560.534,344.4 577.867,321.333C586.134,310.267 588.4,302.533 587.734,288.133C587.334,278.267 586.534,275.467 582.8,268.4ZM252,223.867C252,205.6 251.6,190.667 251.067,190.667C249.467,190.667 240.933,196 237.6,199.2C227.467,208.267 224.533,226.667 231.067,239.467C234.8,246.8 242,253.733 248.267,255.867L252,257.2L252,223.867ZM321.333,572.667C304.267,557.067 301.467,554.934 299.6,556.8C297.867,558.534 298.667,561.067 304,570.534C311.333,583.334 311.867,586.934 307.6,591.2C304.133,594.667 304.133,594.667 280.4,594.667C261.067,594.667 256,595.067 253.6,596.8C250.667,598.8 250.667,599.334 250.667,628.667C250.667,658 250.667,658.534 253.6,660.534C256.133,662.4 262.667,662.667 297.6,662.667L338.667,662.667L338.667,588.667L321.333,572.667Z" style="stroke:black;stroke-width:10.4px;"/>
    </g>
</svg>
