<?xml version="1.0" encoding="UTF-8" standalone="no"?><!DOCTYPE svg PUBLIC "-//W3C//DTD SVG 1.1//EN" "http://www.w3.org/Graphics/SVG/1.1/DTD/svg11.dtd"><svg width="100%" height="100%" viewBox="0 0 410 410" version="1.1" xmlns="http://www.w3.org/2000/svg" xmlns:xlink="http://www.w3.org/1999/xlink" xml:space="preserve" xmlns:serif="http://www.serif.com/" style="fill-rule:evenodd;clip-rule:evenodd;stroke-linejoin:round;stroke-miterlimit:2;"><g id="Fondo"><path d="M150,0l86.4,0c3.092,1.792 14.259,4.623 20.864,15.561c3.148,5.212 3.875,4.436 8.505,8.309c20.75,17.357 17.344,43.025 17.344,50.131c0,28.967 -0.851,30.055 3.088,32.445c16.125,9.783 11.24,33.229 0.63,38.804c-9.782,5.14 -10.198,3.822 -11.016,4.296c-1.538,0.89 -4.481,42.67 -47.3,65.38c-2.53,0.652 -17.619,8.19 -32.938,9.178c-24.288,1.567 -34.137,-3.989 -41.537,-6.325c-2.25,-0.71 -1.47,9.492 -1.452,14.62c0.439,5.214 0.386,5.187 0.474,5.631c4.807,24.312 21.895,21.134 19.528,32.032c-3.105,5.4 -7.132,4.587 -13.53,-0.392c-14.418,-11.221 -13.938,-23.839 -18.552,-22.499c-59.767,17.359 -62.988,19.922 -67.459,23.48c-10.8,11.071 -9.661,15.374 -9.661,39.349c0,37.756 -0.583,39.563 2.609,39.582c3.131,0.019 38.48,0.236 39.144,0.027c1.743,-0.549 1.466,-1.19 1.135,-22.815c-0.18,-11.731 -27.752,-28.679 -17.935,-37.702c3.149,-1.269 3.286,-1.875 6.246,-0.314c2.214,1.168 20.352,25.907 21.62,28.516c4.709,9.693 0.484,78.397 2.468,86.227c-0.149,0.524 -1.112,3.918 -3.072,6.077l-7.2,0c-1.325,-2.227 -2.243,-4.769 -2.399,-5.2c0.053,-0.601 1.303,-42.315 -0.701,-42.683c-1.053,-0.194 -20.876,0.037 -32.896,-0.131c-0.563,-0.008 -2.073,-0.174 -2.102,2.02c-0.044,3.254 -0.334,24.755 0.139,40.681c-0.129,0.464 -0.872,3.143 -2.84,5.313l-7.2,-0c-5.107,-8.584 -1.847,-30.598 -2.668,-47.596c-0.138,-2.849 -2.243,-2.421 -4.598,-6.362c-2.596,-4.345 -2.585,-4.671 -1.936,-63.239c0.414,-37.347 33.739,-40.41 58.086,-48.585c8.286,-2.782 30.066,-8.035 30.698,-10.531c0.111,-0.438 0.411,-20.335 -0.202,-21.772c-1.279,-2.993 -28.691,-15.909 -38.105,-54.264c-1.4,-5.705 -0.408,-7.123 -6.103,-8.774c-19.278,-5.59 -24.03,-32.043 -4.969,-42.851c5.671,-3.216 -7.419,-53.307 16.039,-79.755c1.301,-1.467 10.605,-11.957 18.367,-16.226c2.852,-1.568 2.674,-1.707 5.629,-3.184c1.219,-0.61 8.348,-4.175 16.126,-5.505c1.672,-0.286 1.553,-0.457 3.237,-0.954Z" style="fill-opacity:1;"/><path d="M328.4,409.599l-7.2,0c-1.645,-2.34 -3.579,-5.618 -3.873,-6.116c-0.112,-0.445 -34.334,-68.357 -41.981,-75.601c-11.405,-10.803 -38.04,-8.521 -47.197,-4.674c-28.691,19.076 -7.945,43.739 5.777,46.342c11.364,2.156 23.696,-3.281 29.848,8.357c9.914,18.757 11.489,23.576 12.196,25.742c-0.066,0.521 -0.427,3.366 -2.77,5.95l-7.2,0c-4.109,-6.895 -6.934,-16.056 -9.472,-13.84c-10.58,9.234 -24.236,11.369 -30.528,13.84l-20.8,0c-19.35,-5.656 -19.139,-6.073 -20.106,-6.468c-4.858,-3.167 -25.222,-14.603 -33.242,-37.22c-17.037,-48.042 18.427,-74.943 35.127,-91.71c38.996,-38.667 39.721,-38.151 41.818,-42.431c10.162,-10.613 46.129,-53.949 99,-22.123c17.819,10.727 34.686,36.934 29.834,66.704c-4.327,26.547 -10.962,30.118 -53.083,72.193c-2.595,2.592 4.882,12.286 10.594,23.686c13.187,26.321 18.961,27.84 13.259,37.368Z" style="fill-opacity:1;"/><path d="M243.59,73.911c0.197,0.194 0.631,-0.241 0.828,-0.047c0.76,0.749 0.09,0.859 0.397,1.874c7.684,25.356 4.983,32.099 25.344,33.314l0.429,0.249c1.988,4.97 2.567,4.648 7.545,6.783c5.333,2.287 7.474,9.387 5.536,13.944c-3.539,8.319 -12.637,7.008 -13.676,7.079c-10.53,0.717 -3.803,18.527 -17.931,39.869c-19.086,28.834 -43.554,32.366 -50.01,34.129c-20.83,-7.699 -37.308,-31.5 -37.802,-33.905l0.374,-1.151c3.207,1.943 25.24,15.292 46.875,-0.575c5.674,-4.161 1.235,-14.769 -7.711,-9.174c-2.011,1.258 -15.888,9.936 -29.596,1.761c-3.037,-1.811 -9.968,-7.883 -12.891,1.953c-6.805,-7.944 -7.717,-30.854 -7.827,-33.613c0.192,-0.405 0.383,-0.81 0.575,-1.215c8.331,-2.471 7.442,-16.738 -0.096,-18.471c-0.927,-4.723 -0.628,-10.25 -0.462,-27.514l-0.293,-0.833c37.522,0.453 64.944,-3.481 90.39,-14.456Z" style="fill:#fecdbe;"/><path d="M285.243,211.157c1.855,-0.012 3.701,-0.298 5.556,-0.31c40.155,-0.255 69.187,44.054 48.616,82.249c-2.316,4.301 -5.729,10.637 -41.524,44.764c-1.393,1.328 -1.549,0.318 -2.451,-1.373c-15.336,-28.764 -26.659,-27.869 -54.241,-27.991c-4.322,-0.019 -27.01,-20.976 -29.193,-22.993c1.036,-1.313 62.265,-63.446 73.194,-72.918c0.014,-0.476 0.029,-0.952 0.043,-1.428Z" style="fill:#fe4f7c;"/><path d="M172.589,270.061c6.688,3.598 7.637,0.689 14.391,4.14c-16.701,16.767 -52.165,43.668 -35.127,91.71c8.021,22.617 28.384,34.053 33.242,37.22c-3.553,1.234 -62.26,0.585 -66.422,0.39c-1.984,-7.83 2.241,-76.534 -2.468,-86.227c-1.268,-2.609 -19.406,-27.349 -21.62,-28.516c-2.96,-1.561 -3.097,-0.956 -6.246,0.314c-7.549,-9.331 -7.022,-9.613 -15.292,-18.441c4.471,-3.558 7.693,-6.121 67.459,-23.48c4.615,-1.34 4.135,11.278 18.552,22.499c6.398,4.979 10.426,5.793 13.53,0.392Z" style="fill:#949bb4;"/><path d="M181.975,12.076c48.586,-0.165 58.599,-2.061 65.349,10.882c6.423,12.316 11.889,7.827 18.488,19.951c5.561,10.218 5.069,10.744 4.93,64.695c-0.194,0.483 -0.387,0.965 -0.581,1.448c-20.361,-1.215 -17.66,-7.958 -25.344,-33.314c-0.308,-1.015 0.363,-1.125 -0.397,-1.874c-0.197,-0.194 -0.631,0.241 -0.828,0.047c11.171,-7.121 1.452,-13.624 -3.853,-11.527c-10.314,4.076 -29.632,14.759 -86.532,13.981c1.76,-21.08 -5.018,-40.481 27.195,-62.736l0.737,-0.429l0.838,-1.124Z" style="fill:#775445;"/><path d="M286.831,306.43c-2.221,-0.263 -16.251,-1.922 -25.271,-11.946c-1.235,-1.372 -9.139,-10.157 -10.547,-20.519c-7.181,-52.827 65.58,-66.567 78.745,-15.901c3.516,13.531 -3.074,34.38 -18.358,42.755c-13.319,7.298 -20.002,5.513 -24.568,5.611Z"/><path d="M153.2,88.367l0.293,0.833c-0.166,17.264 -0.465,22.79 0.462,27.514c-10.152,0.643 -9.122,18.621 0.096,18.471c-0.192,0.405 -0.383,0.81 -0.575,1.215c0.11,2.759 1.021,25.669 7.827,33.613c0.33,3.678 0.677,3.566 3.323,6.036l-0.374,1.151c0.494,2.405 16.971,26.206 37.802,33.905c-6.915,1.022 -53.468,7.903 -79.754,-35.679c-15.484,-25.672 -3.305,-37.72 -20.291,-38.394c-11.108,-0.441 -13.486,-12.286 -8.579,-18.039c4.867,-5.706 5.954,-3.801 13.375,-3.928c20.835,-0.358 18.834,-6.348 28.322,-24.902c1.82,-3.559 8.041,-2.149 18.073,-1.796Z" style="fill:#feb09e;"/><path d="M181.975,12.076l-0.838,1.124l-0.737,0.429c-32.213,22.255 -25.436,41.656 -27.195,62.736c-18.773,-0.708 -22.597,-3.805 -31.031,12.922c-3.66,7.26 -5.789,13.608 -8.968,13.673c-0.69,0.014 -8.151,0.166 -8.57,-1.01c-0.019,-0.052 -0.202,-31.37 0.133,-39.129c0.067,-1.555 1.518,-22.592 19.958,-38.029c18.388,-15.394 39.601,-12.775 57.247,-12.715Z" style="fill:#63453b;"/><path d="M203.471,294.161c-13.737,12.94 -36.872,70.685 24.963,98.945c0.416,0.19 0.219,0.338 0.651,0.474c1.281,0.405 0.877,0.77 1.795,1.576c-58.911,15.243 -93.161,-52.494 -55.754,-92.056c0.159,-0.168 17.265,-17.342 17.524,-17.567c1.376,-1.196 7.692,5.645 10.821,8.629Z" style="fill:#d13b68;"/><path d="M228.149,323.208c9.157,-3.847 35.791,-6.129 47.197,4.674c7.647,7.244 41.869,75.156 41.981,75.601c-1.591,0.24 -1.575,0.19 -20.106,0.345c-1.118,-2.737 -1.221,-2.596 -2.571,-4.944c-21.297,-37.031 -21.458,-42.274 -51.851,-43.269c-17.203,-0.563 -13.981,-20.257 -13.999,-31.214l-0.651,-1.192Z" style="fill:#fecdbe;"/><path d="M73.046,270.651c8.269,8.829 7.743,9.111 15.292,18.441c-9.817,9.022 17.755,25.971 17.935,37.702c0.331,21.625 0.608,22.267 -1.135,22.815c-0.664,0.209 -36.012,-0.008 -39.144,-0.027c-3.193,-0.02 -2.609,-1.826 -2.609,-39.582c-0,-23.975 -1.139,-28.278 9.661,-39.349Z" style="fill:#7f8499;"/><path d="M203.471,294.161c9.537,8.602 10.2,7.671 19.322,16.645c2.774,2.729 -23.549,8.567 -20.021,39.997c2.034,18.124 19.917,29.674 29.585,30.688c15.37,1.611 22.943,-0.398 19.028,2.669c-11.778,9.227 -16.002,9.334 -20.505,10.996c-0.918,-0.806 -0.515,-1.172 -1.795,-1.576c-0.432,-0.136 -0.235,-0.284 -0.651,-0.474c-61.835,-28.26 -38.699,-86.004 -24.963,-98.945Z" style="fill:#fe4f7c;"/><path d="M228.149,323.208l0.651,1.192c0.019,10.957 -3.203,30.651 13.999,31.214c30.393,0.995 30.554,6.238 51.851,43.269c1.35,2.348 1.453,2.207 2.571,4.944c-2.877,0.014 -18.946,0.281 -21.251,-0.179c-0.708,-2.166 -2.282,-6.985 -12.196,-25.742c-6.152,-11.638 -18.483,-6.201 -29.848,-8.357c-13.722,-2.603 -34.469,-27.266 -5.777,-46.342Z" style="fill:#feb09e;"/><path d="M228.701,230.777l0.096,0.993c-2.096,4.28 -2.821,3.764 -41.818,42.431c-6.754,-3.45 -7.702,-0.541 -14.391,-4.14c2.367,-10.899 -14.721,-7.72 -19.528,-32.032c-0.088,-0.443 -0.035,-0.417 -0.474,-5.631l0.614,0.495c39.758,14.834 73.018,-2.018 75.501,-2.116Z" style="fill:#fecdbe;"/><path d="M312.549,249.07c19.911,26.901 -12.491,59.436 -39.482,39.484c1.772,-13.437 -0.156,-14.16 6.818,-24.954l0.522,-0.974c4.949,-0.716 5.502,-1.268 6.22,-6.219l0.973,-0.518c11.253,-6.816 11.896,-5.113 24.949,-6.819Z" style="fill:#fecdbe;"/><path d="M70.44,404.287c-0.473,-15.927 -0.183,-37.427 -0.139,-40.681c0.03,-2.193 1.539,-2.028 2.102,-2.02c12.02,0.169 31.844,-0.062 32.896,0.131c2.004,0.369 0.754,42.082 0.701,42.683c-4.71,-1.331 -32.835,-0.898 -35.561,-0.113Z" style="fill:#fecdbe;fill-opacity:1;"/><path d="M285.243,211.157c-0.014,0.476 -0.029,0.952 -0.043,1.428c-10.93,9.472 -72.158,71.606 -73.194,72.918c-3.204,-2.92 -10.866,-8.424 -8.5,-10.794c57.244,-57.329 57.305,-59.856 81.738,-63.553Z" style="fill:#d13b68;"/><path d="M228.514,214.925c0.537,8.013 0.276,7.92 0.186,15.852c-2.483,0.098 -35.743,16.95 -75.501,2.116l-0.614,-0.495c-0.017,-5.127 -0.797,-15.33 1.452,-14.62c7.4,2.336 17.25,7.892 41.537,6.325c15.32,-0.989 30.409,-8.527 32.938,-9.178Z" style="fill:#feb09e;"/><path d="M312.549,249.07c-13.052,1.706 -13.695,0.003 -24.949,6.819l-0.973,0.518c-1.793,-8.507 -8.953,-4.822 -9.997,-3.778c-1.048,1.048 -4.725,8.208 3.778,9.997l-0.522,0.974c-6.974,10.794 -5.046,11.517 -6.818,24.954c-31.391,-27.426 11.862,-70.916 39.482,-39.484Z" style="fill:#feb09e;"/><path d="M161.304,170.013c2.923,-9.836 9.854,-3.764 12.891,-1.953c13.709,8.175 27.585,-0.503 29.596,-1.761c8.946,-5.595 13.385,5.013 7.711,9.174c-21.635,15.867 -43.667,2.518 -46.875,0.575c-2.647,-2.47 -2.993,-2.358 -3.323,-6.036Z"/><path d="M153.955,116.714c7.539,1.732 8.427,16 0.096,18.471c-9.219,0.15 -10.248,-17.827 -0.096,-18.471Z"/><path d="M227.948,126c-0.031,0.987 -0.413,13.112 -8.962,8.49c-6.165,-3.334 -3.477,-22.339 6.021,-16.985c2.74,1.545 2.92,7.776 2.941,8.495Z"/><path d="M294.353,275.631c0.158,-0.531 1.401,-4.717 4.529,-5.24c0.435,-0.073 3.229,-0.54 5.32,1.425c7.274,6.838 -8.226,17.218 -9.848,3.815Z"/><path d="M286.627,256.407c-0.717,4.952 -1.27,5.503 -6.22,6.219c-8.502,-1.789 -4.826,-8.949 -3.778,-9.997c1.044,-1.044 8.204,-4.729 9.997,3.778Z"/><path d="M270.741,107.605c-0.051,0.565 -0.102,1.131 -0.152,1.696l-0.429,-0.249c0.194,-0.483 0.387,-0.965 0.581,-1.448Z" style="fill:#5c4235;fill-opacity:1;"/></g></svg>