<?xml version="1.0" encoding="UTF-8" standalone="no"?><!DOCTYPE svg PUBLIC "-//W3C//DTD SVG 1.1//EN" "http://www.w3.org/Graphics/SVG/1.1/DTD/svg11.dtd"><svg width="100%" height="100%" viewBox="0 0 683 683" version="1.1" xmlns="http://www.w3.org/2000/svg" xmlns:xlink="http://www.w3.org/1999/xlink" xml:space="preserve" xmlns:serif="http://www.serif.com/" style="fill-rule:evenodd;clip-rule:evenodd;stroke-linejoin:round;stroke-miterlimit:2;"><path d="M246.219,12.66c9.915,-2.2 18.265,-2.459 75.668,-2.459c39.139,0 66.797,0.388 70.319,1.294c13.959,3.106 26.223,12.034 34.833,25.232c2.348,3.752 6.393,8.023 8.871,9.575c7.175,4.27 19.961,19.021 24.266,27.691c7.306,14.881 7.828,19.409 7.828,64.439l0,41.019l3.783,1.941c6.001,3.106 12.003,9.964 15.525,17.469c9.785,21.092 -3.522,46.841 -26.745,51.629c-4.566,0.906 -4.827,1.165 -6.393,9.317c-8.611,42.054 -38.225,79.579 -78.016,98.859c-33.79,16.433 -76.32,18.633 -111.415,5.823c-3.783,-1.294 -7.175,-2.459 -7.567,-2.459c-0.522,0 -0.652,8.67 -0.391,19.151c0.522,19.151 0.522,19.151 5.349,28.855c4.697,9.317 8.48,13.587 23.092,25.879c6.914,5.952 4.044,16.692 -4.436,16.692c-10.567,0 -30.659,-20.186 -37.965,-37.784c-1.826,-4.529 -3.001,-5.952 -4.566,-5.564c-1.174,0.388 -24.005,7.376 -50.75,15.528c-26.745,8.281 -51.141,16.433 -54.142,18.245c-6.784,3.882 -13.829,11.387 -17.482,18.374c-4.697,9.058 -5.479,19.409 -5.088,67.545l0.391,45.936l34.964,0.388l34.833,0.259l0,-20.056c0,-14.881 -0.522,-21.092 -1.826,-23.68c-1.044,-1.941 -8.611,-12.422 -16.96,-23.421c-9.393,-12.422 -15.134,-21.092 -15.134,-23.033c0,-3.882 5.479,-9.446 9.132,-9.446c1.566,0 3.914,0.647 5.349,1.423c2.74,1.423 32.094,39.466 36.008,46.841c2.087,3.752 2.348,10.093 2.74,70.78c0.261,36.619 0,67.933 -0.391,69.615c-1.957,7.764 -10.176,10.352 -15.655,4.788l-3.262,-3.106l0,-71.297l-58.578,0l-0.783,72.721l-3.131,2.459c-4.175,3.364 -8.741,3.106 -12.524,-0.776l-3.262,-3.106l0,-36.878c0,-35.972 -0.13,-37.007 -2.74,-38.56c-1.435,-0.906 -3.914,-3.752 -5.479,-6.211c-2.87,-4.529 -2.87,-5.176 -2.87,-59.522c0,-54.217 0,-55.123 3.001,-63.275c6.132,-16.822 18.526,-30.926 33.268,-37.654c4.436,-2.07 30.659,-10.74 58.317,-19.151l50.228,-15.269l0.783,-37.784l-9.654,-7.246c-28.963,-21.609 -50.228,-56.029 -55.968,-90.577c-0.261,-1.682 -2.74,-3.106 -8.35,-4.788c-9.393,-2.847 -18.787,-10.481 -22.961,-18.504c-3.914,-7.634 -4.697,-22.127 -1.696,-30.149c2.609,-6.599 10.959,-16.433 16.438,-19.28l3.522,-1.812l0.522,-40.372c0.522,-40.113 0.522,-40.63 4.175,-51.5c12.785,-38.819 43.705,-66.769 82.974,-75.05Zm149.379,20.315c-5.088,-2.847 -6.262,-2.847 -71.102,-3.106c-69.667,-0.259 -72.798,0 -88.845,5.952c-26.223,9.834 -47.488,33.902 -54.794,61.981c-2.087,8.411 -2.479,14.363 -2.479,44.512l0,34.678l16.96,0l8.611,-17.21c4.697,-9.317 9.915,-18.504 11.481,-20.056c5.74,-6.34 7.045,-6.599 45.923,-6.47c36.138,0.259 54.533,-0.906 78.147,-4.917c16.83,-2.847 36.399,-8.023 46.966,-12.422c15.786,-6.599 17.091,-6.858 20.874,-4.399c7.306,4.788 6.393,13.457 -1.957,17.598c-11.872,6.082 -37.704,13.845 -57.403,17.339c-26.092,4.658 -46.184,6.211 -82.191,6.211l-36.008,0l-8.741,17.21c-12.394,24.327 -15.655,26.526 -39.139,26.526c-14.612,0 -19.178,1.553 -23.092,8.152c-4.958,7.893 -2.087,20.315 5.479,24.327c1.696,0.906 6.784,2.07 11.35,2.588c11.22,1.165 12.655,2.847 15.264,17.986c10.567,61.075 60.795,103.646 122.504,103.776c26.223,0.129 48.532,-6.599 69.928,-21.092c28.702,-19.28 48.271,-50.853 53.229,-85.79c1.696,-11.775 3.653,-13.716 15.786,-15.01c7.697,-0.776 10.046,-1.682 13.177,-4.658c4.697,-4.399 6.523,-10.481 5.088,-16.692c-1.435,-6.211 -5.61,-10.611 -13.307,-13.845c-3.392,-1.423 -6.523,-3.494 -7.175,-4.658c-0.522,-1.294 -1.305,-23.809 -1.696,-50.076l-0.652,-47.877l-4.044,-8.411c-4.827,-9.964 -11.611,-17.727 -21.396,-24.327c-4.697,-3.235 -8.219,-6.987 -10.176,-10.74c-3.914,-7.246 -9.915,-13.587 -16.569,-17.08Zm-144.944,168.733c3.262,-3.623 9.524,-3.494 13.438,0.129c2.609,2.329 3.001,4.011 3.001,11.904c0,7.505 -0.522,9.575 -2.87,12.034c-3.392,3.623 -8.741,3.882 -12.916,0.518c-2.74,-2.2 -3.131,-3.494 -3.131,-12.163c0,-7.764 0.522,-10.222 2.479,-12.422Zm23.092,77.25c4.044,-3.364 7.958,-2.847 17.482,2.329c14.873,8.152 34.051,7.505 47.488,-1.553c6.262,-4.141 12.263,-4.141 15.655,0.259c3.392,4.399 3.392,6.987 0,11.387c-9.263,11.775 -37.573,18.245 -57.142,13.069c-9.263,-2.329 -19.83,-7.634 -23.614,-11.646c-3.914,-4.141 -3.914,-10.74 0.13,-13.845Zm88.845,-76.991c3.914,-4.27 10.437,-4.011 13.959,0.388c2.087,2.717 2.74,5.305 2.74,11.516c0,6.211 -0.652,8.799 -2.74,11.516c-3.392,4.27 -9.524,4.529 -13.829,0.518c-2.609,-2.329 -3.001,-4.011 -3.001,-11.904c0,-7.505 0.522,-9.575 2.87,-12.034Zm95.237,132.243c12.655,-2.717 36.138,-2.459 48.923,0.647c40.052,9.446 70.841,39.595 81.408,79.579c3.522,13.457 3.914,37.396 0.652,50.335c-6.654,27.432 -14.22,38.301 -54.794,78.414c-17.612,17.469 -32.094,32.349 -32.094,33.125c0,0.776 10.046,19.668 22.179,42.183c14.873,27.303 22.179,42.183 22.179,44.771c0,2.717 -1.044,4.788 -3.392,6.599c-4.566,3.494 -8.48,3.494 -12.003,-0.259c-1.566,-1.682 -16.83,-28.855 -34.051,-60.428c-17.091,-31.573 -33.137,-60.169 -35.616,-63.404c-4.566,-6.082 -15.395,-13.457 -23.222,-15.528c-2.479,-0.647 -14.351,-1.294 -26.353,-1.294c-26.484,0 -32.616,1.682 -42.792,11.646c-22.831,22.774 -10.567,61.334 21.526,67.157c4.175,0.776 13.438,1.423 20.483,1.423c20.222,0 21.265,0.906 36.399,31.443c9.393,18.762 10.567,22.127 9.524,25.103c-1.696,4.917 -7.175,7.764 -11.872,6.211c-2.74,-1.035 -4.958,-3.882 -9.132,-11.646c-3.001,-5.693 -5.74,-10.869 -6.001,-11.516c-0.261,-0.647 -5.088,1.812 -10.698,5.435c-50.88,33.125 -118.982,19.409 -152.641,-30.667c-12.394,-18.762 -18.004,-37.784 -17.873,-61.593c0.13,-22.903 5.349,-40.501 18.004,-59.911c5.349,-8.023 132.811,-135.996 145.987,-146.347c13.699,-10.869 28.31,-17.727 45.27,-21.48Zm45.792,19.927c-20.743,-5.176 -45.662,-2.329 -64.318,7.376c-12.394,6.47 -22.179,15.139 -65.231,57.97l-37.051,36.878l3.783,4.141c6.784,6.987 32.485,29.373 45.27,39.336l12.524,9.705l18.134,0c19.961,0 29.224,1.682 40.052,7.505c9.915,5.176 21.396,17.339 28.18,29.632c3.262,5.823 6.132,10.74 6.523,10.74c0.391,0 14.873,-14.104 32.094,-31.443c22.831,-22.903 32.485,-33.643 36.138,-39.725c30.006,-51.5 2.087,-117.233 -56.099,-132.114Zm-38.747,24.197c42.009,-10.093 81.408,20.445 81.408,63.016c0,29.114 -19.047,54.088 -47.619,62.369c-3.783,1.035 -11.872,1.941 -18.134,1.941c-24.527,0 -46.836,-13.716 -57.534,-35.584c-7.306,-14.622 -8.871,-28.208 -5.088,-44.642c4.958,-21.997 24.788,-41.795 46.966,-47.1Zm29.354,19.151c-17.743,-5.305 -38.878,1.682 -49.706,16.563c-14.09,19.28 -11.611,44.512 5.871,60.428c9.915,8.928 19.047,12.163 32.616,11.516c18.004,-0.776 32.355,-10.093 39.661,-25.62c4.697,-9.964 5.349,-24.973 1.566,-35.066c-4.827,-12.81 -16.83,-23.809 -30.006,-27.82Zm-35.747,21.221c2.609,-2.976 10.437,-3.106 13.699,-0.129c3.001,2.588 3.131,10.352 0.13,13.587c-2.609,2.976 -10.437,3.106 -13.699,0.129c-3.001,-2.588 -3.131,-10.352 -0.13,-13.587Zm31.702,31.573c3.522,-3.752 10.437,-3.752 13.699,-0.259c5.479,6.082 0.913,15.916 -7.306,15.916c-7.958,0 -11.872,-9.705 -6.393,-15.657Zm-154.728,31.832c-6.523,-6.34 -12.133,-11.387 -12.394,-11.387c-1.044,0 -31.833,31.443 -36.79,37.654c-5.74,7.117 -14.351,24.973 -16.699,34.808c-0.913,3.882 -1.696,12.94 -1.696,20.056c0.13,25.103 8.48,45.03 26.484,62.887c9.393,9.317 13.307,12.163 23.614,17.08c15.786,7.634 30.006,10.611 45.662,9.575c18.656,-1.423 39.4,-9.187 51.533,-19.668l5.218,-4.399l-11.089,-0.129c-24.657,-0.129 -39.921,-4.917 -52.185,-16.304c-19.83,-18.374 -25.179,-46.194 -13.307,-70.262c4.044,-8.281 15.395,-20.315 23.353,-24.715l5.349,-2.976l-12.524,-10.481c-7.045,-5.693 -18.004,-15.528 -24.527,-21.739Z" style="stroke:#000;stroke-width:10px;"/></svg>